<?xml version="1.0" encoding="UTF-8"?>
<svg version="1.1" xmlns="http://www.w3.org/2000/svg" width="500" height="500">
<path d="M0 0 C165 0 330 0 500 0 C500 165 500 330 500 500 C335 500 170 500 0 500 C0 335 0 170 0 0 Z " fill="#ECE8DC" transform="translate(0,0)"/>
<path d="M0 0 C1.65 0.33 3.3 0.66 5 1 C5 8.92 5 16.84 5 25 C8.3 25 11.6 25 15 25 C24.48953849 28.28970668 30.34788527 32.96786292 35.0546875 41.8515625 C37.10824881 46.51874729 37.14299345 50.92159386 37.12939453 55.96557617 C37.13202301 57.16373207 37.13202301 57.16373207 37.13470459 58.38609314 C37.13909997 61.02174055 37.13619409 63.65732068 37.1328125 66.29296875 C37.133486 68.12331658 37.13445642 69.95366432 37.13571167 71.78401184 C37.13718534 75.61635186 37.13504395 79.44866855 37.13037109 83.28100586 C37.12466191 88.20425608 37.12796241 93.12745194 37.13394356 98.05070019 C37.13754779 101.82778843 37.13641143 105.60486366 37.13381577 109.38195229 C37.13314674 111.19812336 37.13397407 113.0142956 37.13629532 114.83046532 C37.1388209 117.36121148 37.13498317 119.89186798 37.12939453 122.42260742 C37.13141876 123.17948853 37.13344299 123.93636963 37.13552856 124.71618652 C37.11426517 129.88573483 37.11426517 129.88573483 36 131 C34.28681054 131.09881593 32.56955197 131.12798969 30.85351562 131.12939453 C29.75567749 131.13254669 28.65783936 131.13569885 27.5267334 131.13894653 C26.33197388 131.1369223 25.13721436 131.13489807 23.90625 131.1328125 C22.68925415 131.13376923 21.4722583 131.13472595 20.21838379 131.13571167 C17.63924101 131.13639372 15.06009653 131.13453772 12.48095703 131.13037109 C8.51721364 131.12502322 4.55358358 131.13031529 0.58984375 131.13671875 C-1.90885442 131.13605797 -4.40755252 131.13477682 -6.90625 131.1328125 C-8.69838928 131.13584885 -8.69838928 131.13584885 -10.5267334 131.13894653 C-11.62457153 131.13579437 -12.72240967 131.13264221 -13.85351562 131.12939453 C-15.31126404 131.12820114 -15.31126404 131.12820114 -16.79846191 131.12698364 C-19 131 -19 131 -20 130 C-20.13413948 118.82874381 -16.70309586 107.43642195 -14.36303711 96.58642578 C-13.80783434 94.00152387 -13.26109614 91.41493064 -12.71484375 88.828125 C-12.54299057 88.0456842 -12.37113739 87.26324341 -12.19407654 86.45709229 C-10.45492048 78.22446904 -10.45492048 78.22446904 -12.25 70.1875 C-14.14499275 67.81875906 -15.21394253 67.1009071 -18 66 C-20.56111039 65.69886938 -20.56111039 65.69886938 -23.36010742 65.74121094 C-24.43189743 65.73490662 -25.50368744 65.72860229 -26.60795593 65.72210693 C-27.76213516 65.7261554 -28.91631439 65.73020386 -30.10546875 65.734375 C-31.29924637 65.73246155 -32.49302399 65.7305481 -33.72297668 65.72857666 C-36.25062267 65.72721538 -38.77827565 65.73090784 -41.3059082 65.73925781 C-45.15527292 65.74991081 -49.0041659 65.73938462 -52.85351562 65.7265625 C-55.31250102 65.72788503 -57.77148613 65.73044934 -60.23046875 65.734375 C-61.37452682 65.73032654 -62.5185849 65.72627808 -63.6973114 65.72210693 C-74.25961585 65.44853927 -74.25961585 65.44853927 -83.70622253 69.355896 C-85.83450817 72.06047466 -85.67846904 75.3055944 -85.9375 78.625 C-86.65419142 85.79998504 -87.69490519 92.69490519 -93 98 C-96.625 98.125 -96.625 98.125 -100 98 C-99.98952637 98.71655762 -99.97905273 99.43311523 -99.96826172 100.17138672 C-99.92678701 103.40588905 -99.90070108 106.64033553 -99.875 109.875 C-99.85824219 111.00292969 -99.84148437 112.13085938 -99.82421875 113.29296875 C-99.81777344 114.36933594 -99.81132812 115.44570313 -99.8046875 116.5546875 C-99.79421387 117.54968262 -99.78374023 118.54467773 -99.77294922 119.56982422 C-100 122 -100 122 -102 124 C-105.53571429 123.46428571 -105.53571429 123.46428571 -107 122 C-107.08726223 120.21928754 -107.10699041 118.4351686 -107.09765625 116.65234375 C-107.09443359 115.57275391 -107.09121094 114.49316406 -107.08789062 113.38085938 C-107.07951172 112.24455078 -107.07113281 111.10824219 -107.0625 109.9375 C-107.05798828 108.79732422 -107.05347656 107.65714844 -107.04882812 106.48242188 C-107.03699747 103.65489649 -107.0205141 100.8274736 -107 98 C-108.299375 98.020625 -109.59875 98.04125 -110.9375 98.0625 C-112.29165633 98.08399454 -113.64756083 98.07148199 -115 98 C-116.86800363 96.13199637 -116.13757653 92.98360481 -116.14526367 90.49243164 C-116.14862228 89.81274826 -116.1519809 89.13306488 -116.15544128 88.43278503 C-116.16497745 86.17522376 -116.16689573 83.91773644 -116.16796875 81.66015625 C-116.17117951 80.09695911 -116.17454344 78.53376229 -116.17805481 76.9705658 C-116.18405278 73.68943586 -116.18589403 70.4083323 -116.18530273 67.12719727 C-116.18520108 62.91574556 -116.19885364 58.70446233 -116.21607494 54.49305058 C-116.2271751 51.26321125 -116.22922256 48.0334129 -116.22869301 44.80355644 C-116.22987612 43.2505682 -116.2343163 41.69757901 -116.24202538 40.14460945 C-116.25178539 37.97527277 -116.24896328 35.80630508 -116.24291992 33.63696289 C-116.24434494 32.40087784 -116.24576996 31.16479279 -116.24723816 29.89125061 C-116 27 -116 27 -114 25 C-110.375 24.875 -110.375 24.875 -107 25 C-107.02320313 24.15695313 -107.04640625 23.31390625 -107.0703125 22.4453125 C-107.08835938 21.34960938 -107.10640625 20.25390625 -107.125 19.125 C-107.14820313 18.03445312 -107.17140625 16.94390625 -107.1953125 15.8203125 C-107 13 -107 13 -105 11 C-102.29077199 10.80147898 -99.70696821 10.72160523 -97 10.75 C-95.89398438 10.73839844 -95.89398438 10.73839844 -94.765625 10.7265625 C-89.2533196 10.7466804 -89.2533196 10.7466804 -87 13 C-87 16.96 -87 20.92 -87 25 C-58.62 25 -30.24 25 -1 25 C-1 17.08 -1 9.16 -1 1 C-0.67 0.67 -0.34 0.34 0 0 Z " fill="#ECE6D9" transform="translate(294,173)"/>
<path d="M0 0 C1.65 0.33 3.3 0.66 5 1 C5 8.92 5 16.84 5 25 C8.3 25 11.6 25 15 25 C24.48953849 28.28970668 30.34788527 32.96786292 35.0546875 41.8515625 C37.10824881 46.51874729 37.14299345 50.92159386 37.12939453 55.96557617 C37.13202301 57.16373207 37.13202301 57.16373207 37.13470459 58.38609314 C37.13909997 61.02174055 37.13619409 63.65732068 37.1328125 66.29296875 C37.133486 68.12331658 37.13445642 69.95366432 37.13571167 71.78401184 C37.13718534 75.61635186 37.13504395 79.44866855 37.13037109 83.28100586 C37.12466191 88.20425608 37.12796241 93.12745194 37.13394356 98.05070019 C37.13754779 101.82778843 37.13641143 105.60486366 37.13381577 109.38195229 C37.13314674 111.19812336 37.13397407 113.0142956 37.13629532 114.83046532 C37.1388209 117.36121148 37.13498317 119.89186798 37.12939453 122.42260742 C37.13141876 123.17948853 37.13344299 123.93636963 37.13552856 124.71618652 C37.11426517 129.88573483 37.11426517 129.88573483 36 131 C34.28681054 131.09881593 32.56955197 131.12798969 30.85351562 131.12939453 C29.75567749 131.13254669 28.65783936 131.13569885 27.5267334 131.13894653 C26.33197388 131.1369223 25.13721436 131.13489807 23.90625 131.1328125 C22.68925415 131.13376923 21.4722583 131.13472595 20.21838379 131.13571167 C17.63924101 131.13639372 15.06009653 131.13453772 12.48095703 131.13037109 C8.51721364 131.12502322 4.55358358 131.13031529 0.58984375 131.13671875 C-1.90885442 131.13605797 -4.40755252 131.13477682 -6.90625 131.1328125 C-8.69838928 131.13584885 -8.69838928 131.13584885 -10.5267334 131.13894653 C-11.62457153 131.13579437 -12.72240967 131.13264221 -13.85351562 131.12939453 C-15.31126404 131.12820114 -15.31126404 131.12820114 -16.79846191 131.12698364 C-19 131 -19 131 -20 130 C-20.13413948 118.82874381 -16.70309586 107.43642195 -14.36303711 96.58642578 C-13.80783434 94.00152387 -13.26109614 91.41493064 -12.71484375 88.828125 C-12.54299057 88.0456842 -12.37113739 87.26324341 -12.19407654 86.45709229 C-10.45492048 78.22446904 -10.45492048 78.22446904 -12.25 70.1875 C-14.14499275 67.81875906 -15.21394253 67.1009071 -18 66 C-20.56111039 65.69886938 -20.56111039 65.69886938 -23.36010742 65.74121094 C-24.43189743 65.73490662 -25.50368744 65.72860229 -26.60795593 65.72210693 C-27.76213516 65.7261554 -28.91631439 65.73020386 -30.10546875 65.734375 C-31.29924637 65.73246155 -32.49302399 65.7305481 -33.72297668 65.72857666 C-36.25062267 65.72721538 -38.77827565 65.73090784 -41.3059082 65.73925781 C-45.15527292 65.74991081 -49.0041659 65.73938462 -52.85351562 65.7265625 C-55.31250102 65.72788503 -57.77148613 65.73044934 -60.23046875 65.734375 C-61.37452682 65.73032654 -62.5185849 65.72627808 -63.6973114 65.72210693 C-74.25961585 65.44853927 -74.25961585 65.44853927 -83.70622253 69.355896 C-85.83450817 72.06047466 -85.67846904 75.3055944 -85.9375 78.625 C-86.65419142 85.79998504 -87.69490519 92.69490519 -93 98 C-96.625 98.125 -96.625 98.125 -100 98 C-99.98952637 98.71655762 -99.97905273 99.43311523 -99.96826172 100.17138672 C-99.92678701 103.40588905 -99.90070108 106.64033553 -99.875 109.875 C-99.85824219 111.00292969 -99.84148437 112.13085938 -99.82421875 113.29296875 C-99.81777344 114.36933594 -99.81132812 115.44570313 -99.8046875 116.5546875 C-99.79421387 117.54968262 -99.78374023 118.54467773 -99.77294922 119.56982422 C-100 122 -100 122 -102 124 C-105.53571429 123.46428571 -105.53571429 123.46428571 -107 122 C-107.08726223 120.21928754 -107.10699041 118.4351686 -107.09765625 116.65234375 C-107.09443359 115.57275391 -107.09121094 114.49316406 -107.08789062 113.38085938 C-107.07951172 112.24455078 -107.07113281 111.10824219 -107.0625 109.9375 C-107.05798828 108.79732422 -107.05347656 107.65714844 -107.04882812 106.48242188 C-107.03699747 103.65489649 -107.0205141 100.8274736 -107 98 C-108.299375 98.020625 -109.59875 98.04125 -110.9375 98.0625 C-112.29165633 98.08399454 -113.64756083 98.07148199 -115 98 C-116.86800363 96.13199637 -116.13757653 92.98360481 -116.14526367 90.49243164 C-116.14862228 89.81274826 -116.1519809 89.13306488 -116.15544128 88.43278503 C-116.16497745 86.17522376 -116.16689573 83.91773644 -116.16796875 81.66015625 C-116.17117951 80.09695911 -116.17454344 78.53376229 -116.17805481 76.9705658 C-116.18405278 73.68943586 -116.18589403 70.4083323 -116.18530273 67.12719727 C-116.18520108 62.91574556 -116.19885364 58.70446233 -116.21607494 54.49305058 C-116.2271751 51.26321125 -116.22922256 48.0334129 -116.22869301 44.80355644 C-116.22987612 43.2505682 -116.2343163 41.69757901 -116.24202538 40.14460945 C-116.25178539 37.97527277 -116.24896328 35.80630508 -116.24291992 33.63696289 C-116.24434494 32.40087784 -116.24576996 31.16479279 -116.24723816 29.89125061 C-116 27 -116 27 -114 25 C-110.375 24.875 -110.375 24.875 -107 25 C-107.02320313 24.15695313 -107.04640625 23.31390625 -107.0703125 22.4453125 C-107.08835938 21.34960938 -107.10640625 20.25390625 -107.125 19.125 C-107.14820313 18.03445312 -107.17140625 16.94390625 -107.1953125 15.8203125 C-107 13 -107 13 -105 11 C-102.29077199 10.80147898 -99.70696821 10.72160523 -97 10.75 C-95.89398438 10.73839844 -95.89398438 10.73839844 -94.765625 10.7265625 C-89.2533196 10.7466804 -89.2533196 10.7466804 -87 13 C-87 16.96 -87 20.92 -87 25 C-58.62 25 -30.24 25 -1 25 C-1 17.08 -1 9.16 -1 1 C-0.67 0.67 -0.34 0.34 0 0 Z M-110 31 C-110 51.13 -110 71.26 -110 92 C-105.38 92 -100.76 92 -96 92 C-93.33662238 86.67324476 -92.67526502 85.10405351 -92.5625 79.625 C-92.23335369 73.97142816 -91.48192531 69.56414533 -88 65 C-80.85299846 59.04416538 -70.76109965 59.69246918 -61.99609375 59.69921875 C-60.75884048 59.69493362 -59.52158722 59.6906485 -58.24684143 59.68623352 C-55.64056 59.68050954 -53.0342626 59.67997565 -50.42797852 59.68432617 C-46.44715152 59.68749232 -42.46706374 59.66397993 -38.48632812 59.63867188 C-35.9479176 59.63639928 -33.40950509 59.6356952 -30.87109375 59.63671875 C-29.09272377 59.62290413 -29.09272377 59.62290413 -27.27842712 59.60881042 C-20.39850672 59.6472499 -14.69063001 59.82241721 -9.2578125 64.5 C-5.11973799 69.97938141 -4.47891793 74.25329581 -5 81 C-5.78360868 85.68661025 -6.81841804 90.30573956 -7.875 94.9375 C-8.41460923 97.36315969 -8.95368129 99.78893895 -9.4921875 102.21484375 C-9.74967773 103.37097168 -10.00716797 104.52709961 -10.27246094 105.71826172 C-11.24711225 110.10821459 -11.24711225 110.10821459 -12.1953125 114.50390625 C-12.35273926 115.23552979 -12.51016602 115.96715332 -12.67236328 116.72094727 C-13.14229714 119.60607685 -13.14229714 119.60607685 -13 125 C1.52 125 16.04 125 31 125 C31.14561753 111.73638082 31.14561753 111.73638082 31.24414062 98.47265625 C31.27394048 93.05655181 31.309055 87.64087313 31.37719727 82.22509766 C31.43183507 77.85488621 31.46148689 73.48513181 31.47438622 69.11460495 C31.48356949 67.45372709 31.50150164 65.79287205 31.52865028 64.1321907 C31.68871288 53.92812972 31.50175084 45.02665827 24.24409485 37.0765686 C17.34605127 30.35970521 9.09965944 30.71433831 0.00610352 30.77294922 C-1.18485428 30.77265717 -2.37581207 30.77236511 -3.6028595 30.77206421 C-6.85034514 30.77321446 -10.09765586 30.78320847 -13.34510684 30.79721212 C-16.7456935 30.80975942 -20.14628402 30.81089312 -23.54689026 30.81326294 C-29.97822963 30.819466 -36.40950057 30.83586083 -42.84080988 30.85596192 C-50.88539655 30.8805567 -58.92999446 30.89146794 -66.97460938 30.90234375 C-81.31645948 30.92179317 -95.65816039 30.96186244 -110 31 Z " fill="#C95E1A" transform="translate(294,173)"/>
<path d="M0 0 C0.73110473 -0.00155999 1.46220946 -0.00311998 2.21546888 -0.00472724 C4.68374573 -0.00873987 7.15196188 -0.0055466 9.62023926 -0.00241089 C11.38228898 -0.00376481 13.14433843 -0.0055447 14.90638733 -0.00772095 C19.70583598 -0.01229633 24.50526325 -0.01050529 29.3047123 -0.00734186 C34.31577235 -0.0048188 39.32683051 -0.00715565 44.33789062 -0.00872803 C52.75476411 -0.01054988 61.17162882 -0.008143 69.58850098 -0.00338745 C79.33432387 0.0020552 89.08012585 0.00029255 98.82594824 -0.00521386 C107.17750907 -0.00974454 115.52906359 -0.01039576 123.88062525 -0.00777519 C128.87565612 -0.00621216 133.87067715 -0.00601933 138.8657074 -0.00931168 C143.56057151 -0.01218974 148.25540853 -0.0102159 152.9502697 -0.00441742 C154.67851148 -0.00308947 156.40675552 -0.00348452 158.13499641 -0.00568008 C160.48399052 -0.00839024 162.83289637 -0.00501214 165.18188477 0 C166.49967171 0.00037703 167.81745865 0.00075405 169.17517853 0.0011425 C172.09094238 0.12698364 172.09094238 0.12698364 173.09094238 1.12698364 C173.19003541 3.45858419 173.22064742 5.79328306 173.21594238 8.12698364 C173.21852051 9.40573364 173.22109863 10.68448364 173.22375488 12.00198364 C173.09094238 15.12698364 173.09094238 15.12698364 172.09094238 16.12698364 C169.78967651 16.22630373 167.48529282 16.25330827 165.18188477 16.25396729 C164.45078003 16.25552728 163.7196753 16.25708727 162.96641588 16.25869453 C160.49813904 16.26270716 158.02992289 16.25951388 155.56164551 16.25637817 C153.79959578 16.2577321 152.03754634 16.25951198 150.27549744 16.26168823 C145.47604878 16.26626361 140.67662152 16.26447258 135.87717247 16.26130915 C130.86611242 16.25878608 125.85505426 16.26112293 120.84399414 16.26269531 C112.42712066 16.26451717 104.01025594 16.26211029 95.59338379 16.25735474 C85.84756089 16.25191209 76.10175892 16.25367473 66.35593653 16.25918114 C58.0043757 16.26371182 49.65282118 16.26436304 41.30125952 16.26174247 C36.30622864 16.26017945 31.31120762 16.25998662 26.31617737 16.26327896 C21.62131325 16.26615703 16.92647624 16.26418318 12.23161507 16.2583847 C10.50337329 16.25705676 8.77512925 16.25745181 7.04688835 16.25964737 C4.69789425 16.26235753 2.3489884 16.25897943 0 16.25396729 C-1.31778694 16.25359026 -2.63557388 16.25321323 -3.99329376 16.25282478 C-6.90905762 16.12698364 -6.90905762 16.12698364 -7.90905762 15.12698364 C-8.00815064 12.79538309 -8.03876266 10.46068423 -8.03405762 8.12698364 C-8.03663574 6.84823364 -8.03921387 5.56948364 -8.04187012 4.25198364 C-7.80217894 -1.38780871 -5.0413637 0.00144236 0 0 Z " fill="#C85A14" transform="translate(169.9090576171875,310.8730163574219)"/>
<path d="M0 0 C3.04601345 2.22274358 3.90661528 3.42285535 4.5146637 7.18077087 C4.52396156 9.06343407 4.52396156 9.06343407 4.53344727 10.98413086 C4.54206284 11.67894058 4.55067841 12.37375031 4.55955505 13.08961487 C4.58221993 15.38173902 4.57547574 17.67264094 4.56640625 19.96484375 C4.57164199 21.56141015 4.57791829 23.15797344 4.58518982 24.75453186 C4.59559516 28.09944216 4.59103149 31.44392709 4.57641602 34.78881836 C4.55923507 39.07093939 4.58271263 43.35171775 4.61790562 47.63368893 C4.63989032 50.93063717 4.63843556 54.22726472 4.6301403 57.52426338 C4.62932121 59.102692 4.63617668 60.68114426 4.65091133 62.25950432 C4.66837723 64.46932783 4.65380253 66.67674687 4.63110352 68.88647461 C4.62966087 70.77033119 4.62966087 70.77033119 4.62818909 72.69224548 C3.82782346 76.90660237 2.36863405 78.41840012 -1 81 C-4.625 81.0625 -4.625 81.0625 -8 80 C-10.4568363 77.62591594 -10.97171679 76.23254413 -11.38768005 72.8125 C-11.39308304 71.554375 -11.39848602 70.29625 -11.40405273 69 C-11.41091599 68.30358398 -11.41777924 67.60716797 -11.42485046 66.88964844 C-11.44311783 64.59289025 -11.43928178 62.29681508 -11.43359375 60 C-11.43815523 58.40103941 -11.44346071 56.80208078 -11.44947815 55.203125 C-11.45840881 51.85408557 -11.45598632 48.50528462 -11.44604492 45.15625 C-11.43454826 40.86524987 -11.45477687 36.57507181 -11.48396206 32.28417969 C-11.5023097 28.98301978 -11.50203465 25.68205747 -11.49632454 22.38085938 C-11.49617118 20.79881638 -11.50222734 19.21676012 -11.51461601 17.63476562 C-11.52950009 15.4226524 -11.51887079 13.21206554 -11.50170898 11 C-11.50154282 9.741875 -11.50137665 8.48375 -11.50120544 7.1875 C-10.43758719 0.42324148 -6.3452025 -0.9064575 0 0 Z " fill="#C85D18" transform="translate(358,184)"/>
<path d="M0 0 C55.77 0 111.54 0 169 0 C169 1.32 169 2.64 169 4 C113.23 4 57.46 4 0 4 C0 2.68 0 1.36 0 0 Z " fill="#ECE8DC" transform="translate(168,317)"/>
<path d="M0 0 C4.75221893 2.6612426 4.75221893 2.6612426 6.125 5.75 C6.1875 9.25 6.1875 9.25 5.125 12.75 C0.50441372 16.56700606 -3.64247931 18.19033368 -9.671875 18.08984375 C-13.75951712 17.45930321 -16.94275957 15.63879983 -19.875 12.75 C-21.125 9.25 -21.125 9.25 -20.875 5.75 C-16.1947115 -2.05048084 -8.13755494 -3.16172517 0 0 Z " fill="#C9611E" transform="translate(311.875,275.25)"/>
<path d="M0 0 C0.99 0 1.98 0 3 0 C3 22.77 3 45.54 3 69 C2.01 68.67 1.02 68.34 0 68 C0 45.56 0 23.12 0 0 Z " fill="#E6CEB8" transform="translate(353,190)"/>
<path d="M0 0 C1.67542976 0.28604898 3.34385343 0.61781233 5 1 C5.02465881 4.96930989 5.04284023 8.93859034 5.05493164 12.90795898 C5.05997057 14.25920386 5.06680177 15.61044326 5.07543945 16.96166992 C5.08752419 18.90020434 5.09269828 20.838778 5.09765625 22.77734375 C5.10289307 23.94515381 5.10812988 25.11296387 5.11352539 26.31616211 C5 29 5 29 4 30 C2.33382885 30.04063832 0.66611905 30.042721 -1 30 C-1.02465746 25.8882744 -1.04283959 21.77657722 -1.05493164 17.66479492 C-1.0599708 16.26504772 -1.06680216 14.8653058 -1.07543945 13.46557617 C-1.0875232 11.45754223 -1.09269807 9.44947043 -1.09765625 7.44140625 C-1.10289307 6.23170166 -1.10812988 5.02199707 -1.11352539 3.77563477 C-1 1 -1 1 0 0 Z " fill="#C95F1B" transform="translate(337,205)"/>
<path d="M0 0 C0.7734375 0.495 0.7734375 0.495 1.5625 1 C0.5625 4 0.5625 4 -1.4375 5 C-3.49609375 5.16796875 -3.49609375 5.16796875 -5.875 5.1875 C-7.04869141 5.20876953 -7.04869141 5.20876953 -8.24609375 5.23046875 C-10.4375 5 -10.4375 5 -13.4375 3 C-13.4375 2.34 -13.4375 1.68 -13.4375 1 C-9.20368858 -1.70963931 -4.62909082 -1.89911418 0 0 Z " fill="#EBE4D6" transform="translate(310.4375,281)"/>
<path d="M0 0 C2.64 0 5.28 0 8 0 C8 2.64 8 5.28 8 8 C5.36 8 2.72 8 0 8 C0 5.36 0 2.72 0 0 Z " fill="#EBE1D2" transform="translate(193,190)"/>
</svg>
