<svg version="1.1" id="Layer_1" xmlns="http://www.w3.org/2000/svg" xmlns:xlink="http://www.w3.org/1999/xlink" x="0px" y="0px"
	 width="100%" viewBox="0 0 1024 1024" enable-background="new 0 0 1024 1024" xml:space="preserve">
<path fill="#FFFFFF" opacity="1.000000" stroke="none" 
	d="
M936.000000,1025.000000 
	C624.000000,1025.000000 312.500000,1025.000000 1.000000,1025.000000 
	C1.000000,683.666687 1.000000,342.333344 1.000000,1.000000 
	C342.333344,1.000000 683.666687,1.000000 1025.000000,1.000000 
	C1025.000000,342.333344 1025.000000,683.666687 1025.000000,1025.000000 
	C995.500000,1025.000000 966.000000,1025.000000 936.000000,1025.000000 
M788.034790,504.975861 
	C788.034790,504.975861 788.117981,504.964752 788.096191,504.344177 
	C787.769592,503.852295 787.442932,503.360413 787.080994,502.954193 
	C787.080994,502.954193 787.172363,502.939026 787.159241,502.311523 
	C786.832886,501.819336 786.506592,501.327148 786.133545,500.962769 
	C786.133545,500.962769 786.238037,500.875580 786.209961,500.131378 
	C785.188354,497.911499 784.166748,495.691620 783.260742,493.244629 
	C783.260742,493.244629 783.113953,493.036224 783.080505,492.329315 
	C782.427551,491.106415 781.774597,489.883514 781.137024,488.302521 
	C781.137024,488.302521 780.960876,487.990448 780.897095,487.397217 
	C780.637695,487.103210 780.378296,486.809204 780.192871,486.240295 
	C780.192871,486.240295 780.028137,486.008087 780.010193,485.403198 
	C779.687988,484.913879 779.365784,484.424530 779.002197,483.989227 
	C779.002197,483.989227 779.069763,483.981171 779.052734,483.299774 
	C778.404480,482.157928 777.756226,481.016052 777.071228,479.955231 
	C777.071228,479.955231 777.160034,479.950073 777.146973,479.257172 
	C776.815063,478.666687 776.483215,478.076172 776.247437,477.240845 
	C776.247437,477.240845 776.094116,477.027161 776.067383,476.403229 
	C775.739075,475.900330 775.410767,475.397430 775.043457,474.970093 
	C775.043457,474.970093 775.128174,474.963135 775.098877,474.246307 
	C774.451599,472.979187 773.804321,471.712097 773.276733,470.238586 
	C773.276733,470.238586 773.140869,470.042419 773.085632,469.288849 
	C772.229553,467.846558 771.373535,466.404266 770.517456,464.961914 
	C769.958069,465.600128 769.398621,466.238373 768.867065,466.974640 
	C768.867065,466.974640 768.891174,466.875702 768.393188,467.255096 
	C768.227112,467.847748 768.061096,468.440399 767.749695,469.233093 
	C767.749695,469.233093 767.870544,469.448792 767.356628,469.822876 
	C767.229980,470.217560 767.103333,470.612213 766.814819,471.265320 
	C766.814819,471.265320 766.852966,471.567841 766.337219,471.993256 
	C765.932678,472.994873 765.528137,473.996490 764.940918,475.374420 
	C764.940918,475.374420 764.919800,475.792206 764.443970,476.204895 
	C764.268860,476.795990 764.093750,477.387085 763.991577,477.987091 
	C763.991577,477.987091 763.948608,477.927429 763.458923,478.282928 
	C763.283875,478.849182 763.108826,479.415466 762.998718,479.990875 
	C762.998718,479.990875 762.958679,479.939026 762.477112,480.299713 
	C762.299255,480.861603 762.121399,481.423492 762.001709,481.992981 
	C762.001709,481.992981 761.965149,481.947113 761.450867,482.356018 
	C760.940247,483.555847 760.429626,484.755707 759.988464,485.997467 
	C759.988464,485.997467 759.949463,485.926331 759.446106,486.266449 
	C759.263428,486.834229 759.080750,487.402039 758.978455,487.980591 
	C758.978455,487.980591 758.935303,487.911926 758.431274,488.253876 
	C758.244385,488.822632 758.057556,489.391418 757.956604,489.972931 
	C757.956604,489.972931 757.916443,489.895874 757.320618,490.326691 
	C757.176331,492.591034 757.032104,494.855408 756.916565,497.033691 
	C756.916565,497.033691 756.827942,497.053040 756.850647,497.751526 
	C757.183289,498.346710 757.515869,498.941895 757.738831,499.763000 
	C757.738831,499.763000 757.877808,499.972198 757.933167,500.725739 
	C761.979065,509.925720 766.025024,519.125671 770.332031,528.919373 
	C762.048706,528.919373 754.578674,529.279785 747.164307,528.792847 
	C742.208679,528.467468 740.139832,530.304016 739.965210,534.963928 
	C739.965210,534.963928 739.952087,534.933777 739.407715,535.364868 
	C738.927429,536.912292 738.447144,538.459656 737.795898,540.237244 
	C737.795898,540.237244 737.852539,540.518311 737.376099,540.874207 
	C737.272400,541.245300 737.168762,541.616455 736.894470,542.358337 
	C736.894470,542.358337 736.903015,542.766357 736.431885,543.190918 
	C736.285522,543.792725 736.139099,544.394470 736.000000,545.000000 
	C736.000000,545.000000 735.993958,544.991455 735.490295,545.531738 
	C734.879150,547.519287 734.268005,549.506836 733.475037,552.085754 
	C736.016296,552.300720 737.939392,552.590515 739.864624,552.605591 
	C751.970215,552.700439 764.076904,552.815186 776.181763,552.725769 
	C778.871948,552.705933 780.326233,553.330627 781.395691,556.019348 
	C783.220825,560.608032 785.632751,564.963379 787.803772,569.737610 
	C787.803772,569.737610 787.988586,570.000000 788.043579,570.726807 
	C789.322327,573.252319 790.601074,575.777893 791.845032,579.054993 
	C792.850952,581.660828 793.648071,584.377747 794.950806,586.825684 
	C795.605286,588.055420 797.158630,589.599182 798.340820,589.629639 
	C807.376953,589.862488 816.421753,589.757446 826.213989,589.757446 
	C824.673157,586.835388 823.391724,584.405151 822.059204,581.258179 
	C821.084351,579.369263 820.109436,577.480408 819.178772,575.273499 
	C819.178772,575.273499 819.006836,575.002319 819.002014,574.400696 
	C818.678894,573.916992 818.355774,573.433289 817.997009,572.993835 
	C817.997009,572.993835 818.052673,572.983032 818.021667,572.265076 
	C817.063232,570.356384 816.104797,568.447693 815.204529,566.251953 
	C815.204529,566.251953 815.036621,566.011963 815.021362,565.401367 
	C814.696350,564.912476 814.371338,564.423584 814.008789,564.000183 
	C814.008789,564.000183 814.072571,563.959717 814.046143,563.258362 
	C813.413513,562.017029 812.780884,560.775757 812.206116,559.246704 
	C812.206116,559.246704 812.032837,559.009888 812.004639,558.257019 
	C810.059204,554.117493 808.113770,549.977966 806.112976,545.926086 
	C806.112976,545.926086 806.216187,545.916260 806.213257,545.245483 
	C805.825623,544.473511 805.437988,543.701477 805.007507,542.990723 
	C805.007507,542.990723 805.080017,542.972839 805.059998,542.250061 
	C804.091064,540.326904 803.122192,538.403687 802.244446,536.229980 
	C802.244446,536.229980 802.080444,536.019714 802.031921,535.280273 
	C800.738098,532.687500 799.444336,530.094727 798.217468,527.231934 
	C798.217468,527.231934 798.044617,527.014038 798.019958,526.405457 
	C797.696899,525.914001 797.373840,525.422607 797.006042,524.991699 
	C797.006042,524.991699 797.078186,524.970764 797.043762,524.259155 
	C796.093079,522.449341 795.142334,520.639587 794.132751,518.968811 
	C794.132751,518.968811 794.244873,518.867676 794.213501,518.122986 
	C792.865051,515.361450 791.516602,512.599976 790.113464,509.927765 
	C790.113464,509.927765 790.217285,509.914520 790.196045,509.231445 
	C789.847168,508.659973 789.498291,508.088531 789.210388,507.239105 
	C789.210388,507.239105 789.038574,507.012177 789.023193,506.394897 
	C788.706787,505.897125 788.390381,505.399353 788.034790,504.975861 
M625.265320,449.570923 
	C625.260864,454.687256 625.256409,459.803558 625.117737,465.610413 
	C625.171326,466.073578 625.224915,466.536743 625.098755,467.906281 
	C625.160095,471.608063 625.221436,475.309845 625.111511,479.852875 
	C625.160645,481.564606 625.209778,483.276337 625.079468,485.910858 
	C625.079468,492.858948 625.079468,499.807068 625.079468,507.206482 
	C601.376221,507.206482 578.348206,507.206482 554.681213,507.206482 
	C554.681213,487.878632 554.681213,468.645416 554.681213,449.392822 
	C545.459106,449.392822 536.878784,449.392822 528.247925,449.392822 
	C528.247925,496.293976 528.247925,542.851318 528.247925,589.568237 
	C537.326904,589.568237 546.029785,589.568237 555.141357,589.568237 
	C555.141357,569.921692 555.141357,550.683655 555.141357,531.454102 
	C578.604797,531.454102 601.649902,531.454102 625.227417,531.454102 
	C625.227417,551.095703 625.227417,570.328430 625.227417,589.604126 
	C634.349182,589.604126 642.931213,589.604126 651.962524,589.604126 
	C651.962524,583.682678 651.998230,578.059265 651.955811,572.436462 
	C651.826477,555.286682 651.666931,538.137085 651.750183,520.077087 
	C651.770447,501.029083 651.799744,481.981079 651.795166,462.933075 
	C651.794800,461.288971 651.570679,459.644897 651.724426,457.173859 
	C651.618347,455.450623 651.512268,453.727417 651.632751,451.366638 
	C651.566284,450.926666 651.499878,450.486725 651.173340,449.307739 
	C643.469055,449.270691 635.764832,449.233643 627.382690,449.064941 
	C626.927429,449.113953 626.472168,449.162964 625.265320,449.570923 
M360.061798,449.095642 
	C352.047516,449.129059 344.033234,449.162506 335.350220,449.208496 
	C335.133392,449.796112 334.726288,450.383911 334.726868,450.971313 
	C334.772003,495.185272 334.849396,539.399170 334.923615,583.613098 
	C334.926849,585.527893 334.924042,587.442688 334.924042,589.433655 
	C341.464813,589.433655 347.234375,589.433655 353.653412,589.645691 
	C354.097626,589.575378 354.541870,589.505066 355.715759,589.718140 
	C356.481628,589.637390 357.247467,589.556702 358.753143,589.712646 
	C359.523468,589.673462 360.293823,589.634277 361.516541,589.717346 
	C361.888000,589.616516 362.040833,589.376343 362.127411,588.498535 
	C362.081024,588.331055 362.034668,588.163635 362.073547,587.122437 
	C362.283966,584.148865 362.679352,581.175110 362.676910,578.201660 
	C362.642883,536.590759 362.568695,494.979736 362.416779,453.369080 
	C362.411774,451.994781 361.483002,450.623901 360.061798,449.095642 
M709.160767,575.315186 
	C726.338135,533.471802 743.515564,491.628479 761.002563,449.030914 
	C751.920044,449.030914 744.265808,448.860046 736.632629,449.184418 
	C735.215942,449.244598 733.230286,451.021210 732.610962,452.475647 
	C723.228394,474.509705 714.036682,496.625000 704.786621,518.715515 
	C698.561218,533.582642 692.314453,548.440674 685.620911,563.769714 
	C682.065002,572.284546 678.509094,580.799377 674.775452,589.739807 
	C684.210205,589.739807 693.007507,589.811646 701.800110,589.639832 
	C702.786682,589.620544 704.219604,588.420044 704.634155,587.428284 
	C706.203003,583.674622 707.437500,579.781250 709.160767,575.315186 
M389.807129,489.157532 
	C387.442688,504.844452 394.669220,518.892517 408.862823,525.846436 
	C418.819519,530.724548 429.696808,531.030518 440.459503,532.132080 
	C448.671753,532.972534 456.932098,534.174805 464.906403,536.238770 
	C471.002167,537.816467 474.098358,543.379395 474.119507,549.619568 
	C474.146362,557.535950 469.269012,563.978577 460.774506,566.980103 
	C448.926239,571.166504 436.734955,570.398987 424.748810,568.332153 
	C414.507812,566.566223 404.493774,563.484436 394.169312,560.932739 
	C394.169312,567.743896 394.300842,574.871460 394.110352,581.990417 
	C394.023193,585.247192 395.126129,586.588501 398.394226,587.370361 
	C416.978668,591.816467 435.724762,594.159912 454.791107,591.858215 
	C468.840210,590.162231 481.559448,585.524902 491.218658,574.336609 
	C511.503723,550.840576 500.962250,516.527710 470.819641,510.009583 
	C460.192841,507.711609 449.013275,508.016571 438.102844,506.959930 
	C433.818481,506.545074 429.468414,506.055023 425.343353,504.901581 
	C416.129272,502.325226 412.143677,492.900055 416.112183,484.204193 
	C419.620239,476.517395 426.439789,473.576721 433.919342,472.008575 
	C446.206482,469.432434 458.485626,470.426086 470.412170,474.042358 
	C479.243500,476.720154 487.826050,480.218506 496.999664,483.524353 
	C496.999664,476.217499 496.755890,468.790283 497.100861,461.390472 
	C497.277435,457.603210 495.766235,455.857178 492.424561,455.019226 
	C483.578033,452.800751 474.837250,449.969513 465.873352,448.450256 
	C447.645142,445.360840 429.678955,446.150818 412.845520,454.988586 
	C399.391571,462.052094 391.095062,472.743866 389.807129,489.157532 
M131.185486,561.737000 
	C147.652893,524.390930 164.120316,487.044861 180.893188,449.006042 
	C170.436646,449.006042 161.120819,448.882538 151.816406,449.152710 
	C150.566605,449.188995 148.813354,450.975647 148.237900,452.347900 
	C134.793015,484.410004 121.485268,516.529602 108.122490,548.626160 
	C107.341133,550.502869 106.309181,552.275330 105.008728,554.862488 
	C104.001060,552.684570 103.399712,551.536682 102.925789,550.338379 
	C90.078255,517.854065 77.269920,485.354218 64.326302,452.908295 
	C63.708332,451.359253 61.945267,449.191345 60.661297,449.153625 
	C50.250248,448.847443 39.826248,448.981659 28.572737,448.981659 
	C30.363522,452.755127 31.840759,455.682800 33.161785,458.679321 
	C51.895657,501.173767 70.628815,543.668579 89.277702,586.200317 
	C90.456734,588.889282 92.022400,589.999084 94.946449,589.935364 
	C101.442390,589.793701 107.957039,589.672241 114.437851,590.024597 
	C117.728531,590.203369 119.169083,588.977661 120.372871,586.155151 
	C123.766121,578.199158 127.422264,570.355225 131.185486,561.737000 
M875.047424,559.403381 
	C875.047424,522.689026 875.047424,485.974670 875.047424,449.345398 
	C865.586975,449.345398 856.998413,449.345398 848.445557,449.345398 
	C848.445557,496.355621 848.445557,543.011169 848.445557,589.623779 
	C876.009644,589.623779 903.077209,589.623779 930.037109,589.623779 
	C930.037109,581.732666 930.037109,574.182495 930.037109,565.974854 
	C911.429749,565.974854 893.411133,565.974854 875.047729,565.974854 
	C875.047729,563.663147 875.047729,562.017639 875.047424,559.403381 
M230.804413,489.365845 
	C236.119354,476.175598 241.434296,462.985321 247.007904,449.153168 
	C239.029068,449.153168 231.889969,449.321320 224.765015,449.076721 
	C221.574219,448.967194 220.166443,450.140320 218.933868,453.014313 
	C200.071945,496.994873 181.075104,540.917603 162.141190,584.867310 
	C161.536819,586.270142 161.267883,587.817505 160.706741,589.770142 
	C169.663513,589.770142 177.803879,589.577271 185.926468,589.872925 
	C188.836426,589.978882 190.107071,588.977234 191.112000,586.506348 
	C204.193665,554.340820 217.333939,522.199036 230.804413,489.365845 
M987.007080,463.504944 
	C987.007080,458.750336 987.007080,453.995758 987.007080,449.321594 
	C977.546204,449.321594 968.967773,449.321594 960.185608,449.321594 
	C960.089478,450.966492 959.946777,452.266022 959.947327,453.565521 
	C959.965149,497.339386 959.996460,541.113281 960.027466,584.887146 
	C960.028076,585.719177 959.764526,586.712952 960.125305,587.345581 
	C960.678162,588.315125 961.651733,589.735840 962.473511,589.754028 
	C970.565674,589.933594 978.663391,589.862549 987.013428,589.862549 
	C987.013428,547.658875 987.013428,506.081268 987.007080,463.504944 
M285.377716,528.991394 
	C276.007019,507.061096 266.636322,485.130829 256.876740,462.290436 
	C252.326340,471.477295 248.364838,479.829590 244.055618,487.998444 
	C242.362915,491.207275 242.009079,493.895874 243.536926,497.345825 
	C248.092987,507.633606 252.261063,518.093262 256.804932,529.025269 
	C246.395615,529.025269 236.478165,529.025269 226.481857,529.025269 
	C223.852829,536.828979 221.346130,544.269592 218.649048,552.275330 
	C221.398743,552.430908 223.196075,552.611145 224.994400,552.621765 
	C236.981934,552.692261 248.971924,552.869263 260.956024,552.683289 
	C264.436310,552.629333 266.373993,553.501953 267.740051,556.866028 
	C271.805634,566.878052 276.136230,576.785767 280.571503,586.640625 
	C281.192200,588.019836 282.952057,589.786133 284.231445,589.824829 
	C293.314728,590.099609 302.410217,589.971130 312.051910,589.971130 
	C303.124512,569.522095 294.425079,549.595276 285.377716,528.991394 
M502.737396,656.240356 
	C506.562531,656.115295 510.400848,656.147461 514.209778,655.828979 
	C520.137817,655.333252 524.333069,650.321106 522.804993,645.410583 
	C522.143799,643.285767 520.540955,641.453979 519.377808,639.482117 
	C524.050903,631.731812 521.276245,626.389221 512.177246,625.755066 
	C509.525360,625.570251 506.847992,625.766907 504.192780,625.610474 
	C501.306488,625.440369 499.930725,626.364990 500.017639,629.543701 
	C500.226959,637.197327 500.095795,644.860229 500.297607,652.514221 
	C500.330231,653.752319 501.366638,654.963989 502.737396,656.240356 
M618.678528,650.073303 
	C623.804321,641.684875 622.063782,630.479065 614.226440,627.754333 
	C608.421326,625.736084 601.789673,626.095581 595.503540,625.393311 
	C595.503540,636.330200 595.503540,645.854919 595.503540,655.771240 
	C603.654907,655.197388 612.011169,658.008667 618.678528,650.073303 
M536.638245,631.669128 
	C536.638245,639.604370 536.638245,647.539612 536.638245,655.741699 
	C539.122498,655.741699 540.681335,655.741699 542.860657,655.741699 
	C542.860657,653.682556 542.860657,651.903198 542.860657,650.123840 
	C542.860657,648.158936 542.860657,646.194031 542.860657,642.599487 
	C545.580017,644.127808 547.535156,644.713928 548.701965,646.009766 
	C550.224426,647.700623 551.426453,649.840820 552.224792,651.988953 
	C553.806763,656.245789 556.790039,656.553772 560.952454,655.563843 
	C559.875366,653.801331 558.967468,652.260254 558.006042,650.753296 
	C555.687866,647.119812 553.352417,644.113647 557.577759,639.554504 
	C561.597656,635.216980 558.659058,627.020325 553.317688,626.376770 
	C547.997986,625.735779 542.540771,626.236267 536.903809,626.236267 
	C536.808289,627.862366 536.721863,629.332947 536.638245,631.669128 
M387.895172,646.018982 
	C389.565155,642.451233 391.799011,643.509888 393.557800,645.673767 
	C394.997284,647.444946 396.081970,649.627625 396.848297,651.795959 
	C398.268890,655.815674 400.901184,656.525391 405.044342,655.253174 
	C403.999207,653.336426 403.204041,651.526245 402.101410,649.928162 
	C399.695679,646.441589 398.395264,643.631897 402.114929,639.599609 
	C405.755707,635.652832 403.267731,627.793945 398.448547,626.897705 
	C393.023956,625.888855 387.388245,626.015015 381.681854,625.636719 
	C381.681854,634.733826 381.890747,642.862488 381.603943,650.973633 
	C381.430511,655.878052 383.533356,656.635315 387.839905,655.482788 
	C387.839905,652.511597 387.839905,649.710815 387.895172,646.018982 
M278.687988,636.486511 
	C278.687988,633.037231 278.687988,629.587891 278.687988,626.031616 
	C276.475128,626.031616 274.626862,626.031616 272.992798,626.031616 
	C272.992798,633.282776 272.570465,640.109314 273.123108,646.855957 
	C273.586060,652.507935 278.165588,655.878906 284.257904,656.298645 
	C289.837830,656.683167 296.027069,653.665100 296.480072,649.005432 
	C297.222412,641.369080 296.681000,633.607971 296.681000,625.573364 
	C294.804840,625.655884 293.078796,625.731750 291.177643,625.815369 
	C291.177643,629.374268 291.175934,632.361328 291.178131,635.348389 
	C291.180450,638.508118 291.140320,641.668823 291.202576,644.827393 
	C291.281097,648.812439 289.631805,651.172974 285.420502,651.274780 
	C281.091248,651.379395 278.979126,649.195496 278.873596,644.936707 
	C278.811798,642.443481 278.747009,639.950439 278.687988,636.486511 
M231.000000,642.335144 
	C232.001450,649.835815 236.102692,654.836365 242.135757,655.912842 
	C249.041077,657.144897 254.584167,654.685303 257.812653,648.956543 
	C261.268646,642.824097 260.302765,634.704102 255.496857,629.488342 
	C251.416122,625.059570 245.506256,624.023071 239.494827,626.900085 
	C233.423126,629.805847 231.016357,634.978210 231.000000,642.335144 
M347.269104,625.245056 
	C344.797546,624.983215 343.082336,625.372253 343.197479,628.568542 
	C343.400940,634.217163 343.086304,639.889465 343.412201,645.527405 
	C343.805969,652.340393 348.798431,656.511292 355.822144,656.390381 
	C362.090515,656.282471 366.628815,651.920410 366.913696,645.308411 
	C367.135468,640.162476 366.740814,634.989441 366.977692,629.844910 
	C367.181061,625.427856 365.287598,624.647400 360.947357,626.067505 
	C360.947357,632.284607 361.002075,638.560059 360.925079,644.833923 
	C360.884369,648.153198 359.725372,650.791748 355.842804,650.916321 
	C351.915955,651.042358 350.001129,648.746338 349.800232,645.101562 
	C349.516876,639.960571 349.596680,634.799927 349.331482,629.657471 
	C349.256104,628.195862 348.521515,626.768188 347.269104,625.245056 
M418.086517,632.674927 
	C418.086517,640.400208 418.086517,648.125488 418.086517,656.200745 
	C424.525146,656.200745 429.810364,656.319824 435.081940,656.104614 
	C436.195312,656.059143 437.258728,654.789978 438.345215,654.084656 
	C437.348328,653.121094 436.467560,651.534607 435.330566,651.322754 
	C432.915100,650.872498 430.365631,651.086975 427.872375,651.122314 
	C424.844086,651.165283 424.447998,649.303223 424.404663,646.851013 
	C424.356293,644.114258 425.410004,642.781799 428.219299,643.006348 
	C429.544159,643.112244 430.982147,643.502014 432.174500,643.133789 
	C433.640717,642.681030 434.903931,641.571045 436.254883,640.745117 
	C434.847137,639.750671 433.553467,638.215271 432.004883,637.888672 
	C429.687958,637.400146 427.191772,637.761780 424.836456,637.761780 
	C423.972626,631.242737 424.282013,630.861145 430.037750,630.857788 
	C431.700592,630.856873 433.476410,631.236206 434.990601,630.765808 
	C436.205811,630.388184 437.103851,628.989563 438.142639,628.044067 
	C437.100922,627.270020 436.105652,625.915894 435.008972,625.828125 
	C431.373199,625.536926 427.658539,626.048645 424.052826,625.608093 
	C419.024902,624.993774 417.361115,627.047180 418.086517,632.674927 
M795.234619,655.684448 
	C795.627258,651.967896 796.019836,648.251404 796.512085,643.591492 
	C798.380615,644.316895 800.361755,644.494568 801.284241,645.575623 
	C802.870056,647.434204 804.028503,649.763367 804.945129,652.062866 
	C806.401733,655.717224 808.824097,656.771545 812.838257,655.494507 
	C810.716492,651.370911 808.632202,647.320312 806.563354,643.299622 
	C807.530090,642.394775 808.152039,641.854553 808.726624,641.267883 
	C811.948486,637.978760 812.442017,633.604553 810.361389,630.235657 
	C808.974365,627.989868 805.099304,626.687744 802.125977,626.162537 
	C798.276062,625.482483 794.215271,625.996643 790.026489,625.996643 
	C790.026489,635.345520 789.900757,644.304810 790.216553,653.248474 
	C790.248962,654.165100 792.924255,654.988342 795.234619,655.684448 
M659.240112,655.460327 
	C655.909302,646.095154 652.694519,636.685974 649.170288,627.394165 
	C648.227356,624.907959 643.754395,624.750610 642.724609,627.156128 
	C638.778931,636.372192 635.143616,645.721069 631.316528,655.208618 
	C635.903625,656.604370 638.399597,655.890320 638.895752,651.894653 
	C639.325378,648.434204 641.668579,648.098083 644.329285,648.353027 
	C647.413391,648.648682 651.749207,647.052124 652.501953,651.791321 
	C653.158875,655.926636 655.216248,656.593201 659.240112,655.460327 
M755.602661,653.753723 
	C757.265259,654.692505 758.927856,655.631226 761.981689,657.355591 
	C760.601379,648.937256 761.798035,644.779541 770.050232,644.672668 
	C775.185059,644.606079 777.911743,639.278503 777.290161,634.468689 
	C776.594482,629.085510 773.335693,626.051575 767.563782,625.774963 
	C763.627441,625.586304 759.674805,625.738892 755.505432,625.738892 
	C755.505432,635.042664 755.505432,643.960388 755.602661,653.753723 
M826.030518,638.510498 
	C826.077637,643.165649 826.185791,647.821289 826.147339,652.475769 
	C826.126526,654.998962 827.116577,656.058533 829.712341,655.966736 
	C834.193787,655.808350 838.683411,655.884338 843.169128,655.829346 
	C843.446472,655.825989 843.720276,655.538940 844.406860,655.152405 
	C844.335144,653.969543 844.252014,652.598022 844.143066,650.799438 
	C840.086975,650.799438 836.491882,650.799438 832.552002,650.799438 
	C832.403076,648.130615 832.278503,645.898926 832.116516,642.995728 
	C835.572205,642.995728 838.535645,643.182129 841.448181,642.878906 
	C842.291260,642.791138 843.372253,641.388977 843.601807,640.414490 
	C843.730652,639.867249 842.431885,638.466797 841.617737,638.317871 
	C839.679810,637.963501 837.640442,637.996948 835.655151,638.108032 
	C832.834412,638.265869 831.865356,637.064209 831.903137,634.286133 
	C831.939941,631.586670 833.178345,630.790833 835.596802,630.911316 
	C837.255310,630.993958 838.930298,630.815186 840.582153,630.948547 
	C844.514526,631.265991 845.718567,629.670959 844.316711,625.847290 
	C838.323792,625.847290 832.410461,625.847290 826.013000,625.847290 
	C826.013000,629.937683 826.013000,633.727417 826.030518,638.510498 
M200.859482,638.863098 
	C202.589722,630.511963 207.340057,628.828918 215.979507,633.548950 
	C219.518051,631.201477 219.399582,629.157593 215.665665,627.011597 
	C210.783295,624.205566 206.076965,624.588013 201.563965,627.579895 
	C196.030090,631.248535 193.937927,636.613098 194.684692,643.103638 
	C195.365936,649.024841 198.260773,653.392517 203.976669,655.589539 
	C208.356277,657.272888 212.440369,656.691101 216.258453,653.937683 
	C219.434235,651.647461 219.702759,649.743042 215.796082,648.130005 
	C210.630096,652.499451 205.552429,652.540649 202.624908,647.747864 
	C201.268906,645.527893 201.365311,642.420776 200.859482,638.863098 
M687.093872,655.860962 
	C691.711731,656.093689 690.643433,653.399597 689.984558,650.632202 
	C688.231873,650.632202 686.748169,650.600464 685.266174,650.637634 
	C677.792114,650.824829 677.774902,650.831116 677.736145,643.129822 
	C677.707214,637.377747 677.730469,631.625427 677.730469,625.497437 
	C675.298645,625.612305 673.568970,625.694031 671.875732,625.773987 
	C671.875732,636.016479 671.875732,645.767700 671.875732,655.864563 
	C676.898193,655.864563 681.544006,655.864563 687.093872,655.860962 
M323.070770,648.116577 
	C323.070770,642.529541 323.070770,636.942505 323.070770,631.301697 
	C326.099976,631.046448 328.375763,630.854675 330.940430,630.638611 
	C330.940430,628.915527 330.940430,627.380493 330.940430,625.968872 
	C324.602356,625.968872 318.641052,626.096252 312.688477,625.923523 
	C308.794891,625.810608 308.021057,627.366577 309.368744,630.678955 
	C311.909088,630.941833 314.303864,631.189636 317.285156,631.498108 
	C317.285156,639.837708 317.285156,647.728394 317.285156,655.667053 
	C319.521271,655.667053 321.107819,655.667053 323.066986,655.667053 
	C323.066986,653.280029 323.066986,651.145996 323.070770,648.116577 
M868.494263,625.986938 
	C865.331909,626.014771 862.155212,625.883850 859.015930,626.167175 
	C858.073547,626.252136 857.235352,627.491577 856.349426,628.202148 
	C857.215271,629.137329 857.944519,630.632263 858.977051,630.884155 
	C860.789917,631.326538 862.788391,631.007751 865.284180,631.007751 
	C865.284180,639.726257 865.284180,647.636047 865.284180,655.601562 
	C867.442505,655.601562 869.012878,655.601562 871.112122,655.601562 
	C871.112122,647.373352 871.112122,639.460449 871.112122,631.285339 
	C874.342590,631.101685 877.068359,630.946716 879.596680,630.802979 
	C880.531006,627.370544 879.854126,625.698547 876.468750,625.914001 
	C874.147095,626.061768 871.809998,625.966980 868.494263,625.986938 
M574.107056,637.517700 
	C574.123047,641.996155 574.308472,646.482300 574.105530,650.950806 
	C573.917114,655.099854 575.193481,657.031128 579.923767,655.442322 
	C579.923767,645.720154 579.923767,635.869263 579.923767,625.809937 
	C577.856201,625.809937 576.133484,625.809937 574.097778,625.809937 
	C574.097778,629.617493 574.097778,633.073059 574.107056,637.517700 
M466.769745,639.379700 
	C465.971527,640.592896 464.298431,642.036743 464.545563,642.974487 
	C465.186340,645.405884 466.099396,648.476257 467.955231,649.710510 
	C470.748352,651.568115 473.892426,649.557129 474.380768,646.609131 
	C474.753143,644.360962 473.333099,641.543884 472.000763,639.426392 
	C471.505554,638.639404 468.991821,639.122437 466.769745,639.379700 
M715.044006,647.413696 
	C717.366089,650.520325 720.394775,651.490662 722.744629,648.139038 
	C723.969727,646.391541 724.079834,643.010376 723.231934,640.976318 
	C722.711060,639.726807 719.068970,638.640076 717.460022,639.223083 
	C714.271545,640.378540 713.565430,643.437134 715.044006,647.413696 
z"/>
<path fill="#C8A75A" opacity="1.000000" stroke="none" 
	d="
M625.282715,479.011627 
	C625.221436,475.309845 625.160095,471.608063 625.522461,467.542938 
	C626.586731,468.681610 627.227234,470.183624 627.463196,470.737091 
	C631.016174,467.287506 634.311279,463.619629 638.091309,460.548676 
	C641.957886,457.407349 646.253540,458.785828 647.918701,463.485687 
	C648.672852,465.614380 648.939880,468.012726 648.952637,470.291382 
	C649.039368,485.753693 648.932434,501.217468 649.109680,516.678223 
	C649.126282,518.123657 650.679382,519.551453 651.519104,520.987427 
	C651.666931,538.137085 651.826477,555.286682 651.955811,572.436462 
	C651.998230,578.059265 651.962524,583.682678 651.962524,589.604126 
	C642.931213,589.604126 634.349182,589.604126 625.227417,589.604126 
	C625.227417,570.328430 625.227417,551.095703 625.227417,531.454102 
	C601.649902,531.454102 578.604797,531.454102 555.141357,531.454102 
	C555.141357,550.683655 555.141357,569.921692 555.141357,589.568237 
	C546.029785,589.568237 537.326904,589.568237 528.247925,589.568237 
	C528.247925,542.851318 528.247925,496.293976 528.247925,449.392822 
	C536.878784,449.392822 545.459106,449.392822 554.681213,449.392822 
	C554.681213,468.645416 554.681213,487.878632 554.681213,507.206482 
	C578.348206,507.206482 601.376221,507.206482 625.079468,507.206482 
	C625.079468,499.807068 625.079468,492.858948 625.520996,485.444153 
	C626.845520,484.100800 627.728516,483.224152 628.611572,482.347534 
	C627.501953,481.235565 626.392334,480.123596 625.282715,479.011627 
z"/>
<path fill="#C9A759" opacity="1.000000" stroke="none" 
	d="
M389.848633,488.722534 
	C391.095062,472.743866 399.391571,462.052094 412.845520,454.988586 
	C429.678955,446.150818 447.645142,445.360840 465.873352,448.450256 
	C474.837250,449.969513 483.578033,452.800751 492.424561,455.019226 
	C495.766235,455.857178 497.277435,457.603210 497.100861,461.390472 
	C496.755890,468.790283 496.999664,476.217499 496.999664,483.524353 
	C487.826050,480.218506 479.243500,476.720154 470.412170,474.042358 
	C458.485626,470.426086 446.206482,469.432434 433.919342,472.008575 
	C426.439789,473.576721 419.620239,476.517395 416.112183,484.204193 
	C412.143677,492.900055 416.129272,502.325226 425.343353,504.901581 
	C429.468414,506.055023 433.818481,506.545074 438.102844,506.959930 
	C449.013275,508.016571 460.192841,507.711609 470.819641,510.009583 
	C500.962250,516.527710 511.503723,550.840576 491.218658,574.336609 
	C481.559448,585.524902 468.840210,590.162231 454.791107,591.858215 
	C435.724762,594.159912 416.978668,591.816467 398.394226,587.370361 
	C395.126129,586.588501 394.023193,585.247192 394.110352,581.990417 
	C394.300842,574.871460 394.169312,567.743896 394.169312,560.932739 
	C404.493774,563.484436 414.507812,566.566223 424.748810,568.332153 
	C436.734955,570.398987 448.926239,571.166504 460.774506,566.980103 
	C469.269012,563.978577 474.146362,557.535950 474.119507,549.619568 
	C474.098358,543.379395 471.002167,537.816467 464.906403,536.238770 
	C456.932098,534.174805 448.671753,532.972534 440.459503,532.132080 
	C429.696808,531.030518 418.819519,530.724548 408.862823,525.846436 
	C394.669220,518.892517 387.442688,504.844452 389.848633,488.722534 
z"/>
<path fill="#C9A75A" opacity="1.000000" stroke="none" 
	d="
M131.080139,562.102051 
	C127.422264,570.355225 123.766121,578.199158 120.372871,586.155151 
	C119.169083,588.977661 117.728531,590.203369 114.437851,590.024597 
	C107.957039,589.672241 101.442390,589.793701 94.946449,589.935364 
	C92.022400,589.999084 90.456734,588.889282 89.277702,586.200317 
	C70.628815,543.668579 51.895657,501.173767 33.161785,458.679321 
	C31.840759,455.682800 30.363522,452.755127 28.572737,448.981659 
	C39.826248,448.981659 50.250248,448.847443 60.661297,449.153625 
	C61.945267,449.191345 63.708332,451.359253 64.326302,452.908295 
	C77.269920,485.354218 90.078255,517.854065 102.925789,550.338379 
	C103.399712,551.536682 104.001060,552.684570 105.008728,554.862488 
	C106.309181,552.275330 107.341133,550.502869 108.122490,548.626160 
	C121.485268,516.529602 134.793015,484.410004 148.237900,452.347900 
	C148.813354,450.975647 150.566605,449.188995 151.816406,449.152710 
	C161.120819,448.882538 170.436646,449.006042 180.893188,449.006042 
	C164.120316,487.044861 147.652893,524.390930 131.080139,562.102051 
z"/>
<path fill="#C9A75A" opacity="1.000000" stroke="none" 
	d="
M875.047607,559.887695 
	C875.047729,562.017639 875.047729,563.663147 875.047729,565.974854 
	C893.411133,565.974854 911.429749,565.974854 930.037109,565.974854 
	C930.037109,574.182495 930.037109,581.732666 930.037109,589.623779 
	C903.077209,589.623779 876.009644,589.623779 848.445557,589.623779 
	C848.445557,543.011169 848.445557,496.355621 848.445557,449.345398 
	C856.998413,449.345398 865.586975,449.345398 875.047424,449.345398 
	C875.047424,485.974670 875.047424,522.689026 875.047607,559.887695 
z"/>
<path fill="#CAA85B" opacity="1.000000" stroke="none" 
	d="
M230.631927,489.708588 
	C217.333939,522.199036 204.193665,554.340820 191.112000,586.506348 
	C190.107071,588.977234 188.836426,589.978882 185.926468,589.872925 
	C177.803879,589.577271 169.663513,589.770142 160.706741,589.770142 
	C161.267883,587.817505 161.536819,586.270142 162.141190,584.867310 
	C181.075104,540.917603 200.071945,496.994873 218.933868,453.014313 
	C220.166443,450.140320 221.574219,448.967194 224.765015,449.076721 
	C231.889969,449.321320 239.029068,449.153168 247.007904,449.153168 
	C241.434296,462.985321 236.119354,476.175598 230.631927,489.708588 
z"/>
<path fill="#C9A759" opacity="1.000000" stroke="none" 
	d="
M987.010254,464.004303 
	C987.013428,506.081268 987.013428,547.658875 987.013428,589.862549 
	C978.663391,589.862549 970.565674,589.933594 962.473511,589.754028 
	C961.651733,589.735840 960.678162,588.315125 960.125305,587.345581 
	C959.764526,586.712952 960.028076,585.719177 960.027466,584.887146 
	C959.996460,541.113281 959.965149,497.339386 959.947327,453.565521 
	C959.946777,452.266022 960.089478,450.966492 960.185608,449.321594 
	C968.967773,449.321594 977.546204,449.321594 987.007080,449.321594 
	C987.007080,453.995758 987.007080,458.750336 987.010254,464.004303 
z"/>
<path fill="#C8A75B" opacity="1.000000" stroke="none" 
	d="
M285.551697,529.329956 
	C294.425079,549.595276 303.124512,569.522095 312.051910,589.971130 
	C302.410217,589.971130 293.314728,590.099609 284.231445,589.824829 
	C282.952057,589.786133 281.192200,588.019836 280.571503,586.640625 
	C276.136230,576.785767 271.805634,566.878052 267.740051,556.866028 
	C266.373993,553.501953 264.436310,552.629333 260.956024,552.683289 
	C248.971924,552.869263 236.981934,552.692261 224.994400,552.621765 
	C223.196075,552.611145 221.398743,552.430908 218.649048,552.275330 
	C221.346130,544.269592 223.852829,536.828979 226.481857,529.025269 
	C236.478165,529.025269 246.395615,529.025269 256.804932,529.025269 
	C252.261063,518.093262 248.092987,507.633606 243.536926,497.345825 
	C242.009079,493.895874 242.362915,491.207275 244.055618,487.998444 
	C248.364838,479.829590 252.326340,471.477295 256.876740,462.290436 
	C266.636322,485.130829 276.007019,507.061096 285.551697,529.329956 
M251.231766,550.053162 
	C250.807510,548.173523 250.143600,546.311340 250.005310,544.410889 
	C249.636429,539.340820 238.788666,537.874023 246.362015,530.004883 
	C242.827133,530.004883 240.316620,530.373169 237.955170,529.936035 
	C230.771271,528.606323 226.332687,531.391663 224.455658,538.334351 
	C223.386246,542.289856 222.505142,546.296265 221.467850,550.574219 
	C232.108871,550.574219 241.342072,550.574219 251.231766,550.053162 
z"/>
<path fill="#CAA85B" opacity="1.000000" stroke="none" 
	d="
M686.077209,563.302856 
	C692.314453,548.440674 698.561218,533.582642 704.786621,518.715515 
	C714.036682,496.625000 723.228394,474.509705 732.610962,452.475647 
	C733.230286,451.021210 735.215942,449.244598 736.632629,449.184418 
	C744.265808,448.860046 751.920044,449.030914 761.002563,449.030914 
	C743.515564,491.628479 726.338135,533.471802 708.744995,575.374634 
	C706.956177,573.765137 705.606567,570.682678 704.206299,570.659485 
	C695.905029,570.522034 695.287903,570.278625 693.069702,562.898438 
	C692.659668,561.534119 691.482239,560.400330 690.659058,559.160156 
	C689.777649,560.386719 688.980957,561.690430 687.970337,562.799255 
	C687.600464,563.205139 686.723083,563.148499 686.077209,563.302856 
z"/>
<path fill="#C8A85C" opacity="1.000000" stroke="none" 
	d="
M739.926941,534.947815 
	C740.139832,530.304016 742.208679,528.467468 747.164307,528.792847 
	C754.578674,529.279785 762.048706,528.919373 770.332031,528.919373 
	C766.025024,519.125671 761.979065,509.925720 758.230225,500.498138 
	C760.793579,503.979858 763.059814,507.689178 765.554321,511.772064 
	C770.377808,510.387299 768.620605,506.287598 768.189087,503.102509 
	C770.033203,501.713593 771.513123,500.392944 773.191650,499.412048 
	C774.198792,498.823486 776.166321,498.133179 776.590393,498.569458 
	C779.826965,501.898712 783.598328,505.081909 785.648743,509.103180 
	C788.746948,515.179443 790.520996,521.922546 792.975952,528.337036 
	C796.260132,536.918518 799.807251,545.402222 802.945190,554.035645 
	C804.617737,558.637085 805.886658,563.420776 806.854370,568.219666 
	C807.123596,569.554749 805.667725,571.237793 805.003296,572.761230 
	C803.990662,571.714050 802.978027,570.666931 801.636230,569.279419 
	C795.091370,571.016541 793.001770,563.076721 787.426819,561.284424 
	C787.561951,564.243591 787.680054,566.830139 787.798218,569.416748 
	C785.632751,564.963379 783.220825,560.608032 781.395691,556.019348 
	C780.326233,553.330627 778.871948,552.705933 776.181763,552.725769 
	C764.076904,552.815186 751.970215,552.700439 739.864624,552.605591 
	C737.939392,552.590515 736.016296,552.300720 733.475037,552.085754 
	C734.268005,549.506836 734.879150,547.519287 735.747803,545.700623 
	C736.113281,547.451782 736.221313,549.034058 736.355347,550.997559 
	C744.307556,550.997559 751.763184,550.775574 759.196838,551.083618 
	C763.428528,551.258911 765.922180,550.339539 765.402954,545.243164 
	C759.606079,542.155029 757.150940,537.090210 758.887878,530.235657 
	C752.978088,530.235657 747.886780,530.235657 743.544312,530.235657 
	C742.077332,532.146606 741.002136,533.547180 739.926941,534.947815 
z"/>
<path fill="#C9A759" opacity="1.000000" stroke="none" 
	d="
M787.800964,569.577148 
	C787.680054,566.830139 787.561951,564.243591 787.426819,561.284424 
	C793.001770,563.076721 795.091370,571.016541 801.636230,569.279419 
	C802.978027,570.666931 803.990662,571.714050 805.003296,572.761230 
	C805.667725,571.237793 807.123596,569.554749 806.854370,568.219666 
	C805.886658,563.420776 804.617737,558.637085 802.945190,554.035645 
	C799.807251,545.402222 796.260132,536.918518 792.975952,528.337036 
	C790.520996,521.922546 788.746948,515.179443 785.648743,509.103180 
	C783.598328,505.081909 779.826965,501.898712 776.590393,498.569458 
	C776.166321,498.133179 774.198792,498.823486 773.191650,499.412048 
	C771.513123,500.392944 770.033203,501.713593 768.189087,503.102509 
	C768.620605,506.287598 770.377808,510.387299 765.554321,511.772064 
	C763.059814,507.689178 760.793579,503.979858 758.202576,500.121368 
	C757.877808,499.972198 757.738831,499.763000 757.817139,499.277863 
	C757.539612,498.212830 757.183777,497.632935 756.827942,497.053040 
	C756.827942,497.053040 756.916565,497.033691 756.945557,496.668640 
	C757.288513,494.167694 757.602478,492.031799 757.916443,489.895874 
	C757.916443,489.895874 757.956604,489.972931 758.190918,489.817322 
	C758.595276,489.078461 758.765320,488.495178 758.935303,487.911926 
	C758.935303,487.911926 758.978455,487.980591 759.208984,487.821350 
	C759.609497,487.083496 759.779480,486.504913 759.949463,485.926331 
	C759.949463,485.926331 759.988464,485.997467 760.323181,485.930298 
	C761.093628,484.557800 761.529419,483.252441 761.965149,481.947113 
	C761.965149,481.947113 762.001709,481.992981 762.233765,481.827332 
	C762.630066,481.087463 762.794373,480.513245 762.958679,479.939026 
	C762.958679,479.939026 762.998718,479.990875 763.229858,479.825195 
	C763.623474,479.082153 763.786072,478.504791 763.948608,477.927429 
	C763.948608,477.927429 763.991577,477.987091 764.229492,477.809082 
	C764.618225,477.018127 764.769043,476.405182 764.919800,475.792206 
	C764.919800,475.792206 764.940918,475.374420 765.390381,475.108582 
	C766.177551,473.751099 766.515259,472.659485 766.852966,471.567841 
	C766.852966,471.567841 766.814819,471.265320 767.149963,470.949585 
	C767.613586,470.238831 767.742065,469.843811 767.870483,469.448792 
	C767.870544,469.448792 767.749695,469.233093 768.092407,468.957947 
	C768.587158,468.080414 768.739136,467.478058 768.891174,466.875702 
	C768.891174,466.875702 768.867065,466.974640 769.202454,466.989441 
	C770.738831,468.016937 771.939880,469.029694 773.140869,470.042419 
	C773.140869,470.042419 773.276733,470.238586 773.194092,470.726624 
	C773.783691,472.464142 774.455933,473.713654 775.128174,474.963135 
	C775.128174,474.963135 775.043457,474.970093 775.057617,475.252716 
	C775.412537,476.032623 775.753296,476.529907 776.094116,477.027161 
	C776.094116,477.027161 776.247437,477.240845 776.175171,477.732178 
	C776.455322,478.799072 776.807678,479.374573 777.160034,479.950073 
	C777.160034,479.950073 777.071228,479.955231 777.079346,480.261078 
	C777.748230,481.705017 778.408997,482.843109 779.069763,483.981171 
	C779.069763,483.981171 779.002197,483.989227 779.027466,484.271301 
	C779.377869,485.038269 779.703003,485.523163 780.028137,486.008087 
	C780.028137,486.008087 780.192871,486.240295 780.192505,486.678192 
	C780.448364,487.407532 780.704651,487.698975 780.960876,487.990448 
	C780.960876,487.990448 781.137024,488.302521 781.112915,488.850372 
	C781.763794,490.610901 782.438843,491.823578 783.113953,493.036224 
	C783.113953,493.036224 783.260742,493.244629 783.188232,493.774384 
	C784.156494,496.494598 785.197266,498.685089 786.238037,500.875580 
	C786.238037,500.875580 786.133545,500.962769 786.119324,501.224792 
	C786.460876,501.970886 786.816650,502.454956 787.172363,502.939026 
	C787.172363,502.939026 787.080994,502.954193 787.081421,503.231934 
	C787.427246,503.994659 787.772644,504.479706 788.117981,504.964752 
	C788.117981,504.964752 788.034790,504.975861 788.049683,505.252747 
	C788.389160,506.023804 788.713867,506.518005 789.038574,507.012177 
	C789.038574,507.012177 789.210388,507.239105 789.155762,507.745911 
	C789.473145,508.806641 789.845215,509.360565 790.217285,509.914520 
	C790.217285,509.914520 790.113464,509.927765 790.089539,510.273865 
	C791.458679,513.369202 792.851807,516.118408 794.244873,518.867676 
	C794.244873,518.867676 794.132751,518.968811 794.102539,519.274963 
	C795.074341,521.377686 796.076233,523.174194 797.078186,524.970764 
	C797.078186,524.970764 797.006042,524.991699 797.031250,525.272644 
	C797.385864,526.040405 797.715271,526.527222 798.044617,527.014038 
	C798.044617,527.014038 798.217468,527.231934 798.144897,527.792114 
	C799.408325,530.908081 800.744385,533.463928 802.080444,536.019714 
	C802.080444,536.019714 802.244446,536.229980 802.162109,536.762451 
	C803.079834,539.187500 804.079956,541.080200 805.080017,542.972839 
	C805.080017,542.972839 805.007507,542.990723 805.013794,543.314575 
	C805.418823,544.397766 805.817505,545.156982 806.216187,545.916260 
	C806.216187,545.916260 806.112976,545.926086 806.089111,546.276611 
	C808.054504,550.754761 810.043701,554.882324 812.032837,559.009888 
	C812.032837,559.009888 812.206116,559.246704 812.137817,559.811340 
	C812.737183,561.570557 813.404907,562.765137 814.072571,563.959717 
	C814.072571,563.959717 814.008789,564.000183 814.031433,564.277527 
	C814.381592,565.040588 814.709106,565.526245 815.036621,566.011963 
	C815.036621,566.011963 815.204529,566.251953 815.137939,566.797974 
	C816.065186,569.223755 817.058899,571.103394 818.052612,572.983032 
	C818.052673,572.983032 817.997009,572.993835 818.022339,573.276917 
	C818.367310,574.040771 818.687073,574.521545 819.006836,575.002319 
	C819.006836,575.002319 819.178772,575.273499 819.138184,575.818359 
	C820.101868,578.233765 821.106079,580.104370 822.110229,581.974915 
	C823.391724,584.405151 824.673157,586.835388 826.213989,589.757446 
	C816.421753,589.757446 807.376953,589.862488 798.340820,589.629639 
	C797.158630,589.599182 795.605286,588.055420 794.950806,586.825684 
	C793.648071,584.377747 792.850952,581.660828 791.897095,578.258911 
	C792.183411,574.150269 794.533264,569.714966 787.988586,570.000000 
	C787.988586,570.000000 787.803772,569.737610 787.800964,569.577148 
z"/>
<path fill="#CBA551" opacity="1.000000" stroke="none" 
	d="
M361.064148,589.595093 
	C360.293823,589.634277 359.523468,589.673462 358.301270,589.326538 
	C356.894958,589.105225 355.940552,589.270020 354.986115,589.434753 
	C354.541870,589.505066 354.097626,589.575378 353.171570,589.207703 
	C348.774078,588.514709 344.839874,587.901794 340.947937,588.103760 
	C336.927155,588.312500 335.907196,586.905518 335.918793,583.001404 
	C336.051056,538.399841 336.012146,493.797821 336.018951,449.195923 
	C344.033234,449.162506 352.047516,449.129059 360.593323,449.567383 
	C361.405914,452.154205 361.926300,454.268646 361.931335,456.384369 
	C361.989075,480.633728 362.088074,504.884094 361.929565,529.132568 
	C361.810425,547.362488 361.311310,565.589844 361.061676,583.819397 
	C361.042664,585.207214 361.664429,586.603760 361.988342,587.996277 
	C362.034668,588.163635 362.081024,588.331055 361.872803,588.803467 
	C361.384552,589.214966 361.199860,589.377197 361.064148,589.595093 
M360.999420,493.504578 
	C360.300598,486.120239 360.022888,478.660065 358.712372,471.385925 
	C358.121948,468.108551 355.471741,465.202271 353.756134,462.127594 
	C350.226135,464.314819 346.683899,466.482910 343.184418,468.717987 
	C342.822296,468.949249 342.747101,469.599274 342.484436,470.021179 
	C338.168030,476.954529 340.260773,484.588654 340.230438,491.941162 
	C340.196991,500.052856 341.168060,508.187042 340.830109,516.275024 
	C340.236908,530.471863 338.292908,544.639099 338.252594,558.822510 
	C338.227539,567.630554 339.272369,576.741333 350.035095,581.037537 
	C354.241577,582.716614 356.460663,582.257751 358.057861,579.123230 
	C359.641113,576.015930 360.842224,572.325684 360.874573,568.878601 
	C361.107117,544.088501 360.999451,519.295105 360.999420,493.504578 
z"/>
<path fill="#CBA551" opacity="1.000000" stroke="none" 
	d="
M685.849060,563.536255 
	C686.723083,563.148499 687.600464,563.205139 687.970337,562.799255 
	C688.980957,561.690430 689.777649,560.386719 690.659058,559.160156 
	C691.482239,560.400330 692.659668,561.534119 693.069702,562.898438 
	C695.287903,570.278625 695.905029,570.522034 704.206299,570.659485 
	C705.606567,570.682678 706.956177,573.765137 708.563110,575.687134 
	C707.437500,579.781250 706.203003,583.674622 704.634155,587.428284 
	C704.219604,588.420044 702.786682,589.620544 701.800110,589.639832 
	C693.007507,589.811646 684.210205,589.739807 674.775452,589.739807 
	C678.509094,580.799377 682.065002,572.284546 685.849060,563.536255 
z"/>
<path fill="#CCA34A" opacity="1.000000" stroke="none" 
	d="
M502.338226,656.214111 
	C501.366638,654.963989 500.330231,653.752319 500.297607,652.514221 
	C500.095795,644.860229 500.226959,637.197327 500.017639,629.543701 
	C499.930725,626.364990 501.306488,625.440369 504.192780,625.610474 
	C506.847992,625.766907 509.525360,625.570251 512.177246,625.755066 
	C521.276245,626.389221 524.050903,631.731812 519.371826,639.485596 
	C520.540955,641.453979 522.143799,643.285767 522.804993,645.410583 
	C524.333069,650.321106 520.137817,655.333252 514.209778,655.828979 
	C510.400848,656.147461 506.562531,656.115295 502.338226,656.214111 
M506.855652,643.092285 
	C506.533020,645.567627 506.210388,648.042969 505.830994,650.953857 
	C508.960815,650.953857 511.413605,651.474670 513.453369,650.780945 
	C514.952454,650.271179 516.653381,648.271179 516.858765,646.745972 
	C517.005005,645.660339 515.031677,643.693604 513.608887,643.144531 
	C511.864838,642.471619 509.708466,642.867310 506.855652,643.092285 
M513.423279,630.977356 
	C511.155518,630.771729 508.887726,630.566101 506.241852,630.326233 
	C506.241852,632.974060 506.241852,635.316162 506.241852,637.662109 
	C515.480408,637.552673 516.223145,636.924744 513.423279,630.977356 
z"/>
<path fill="#CBA551" opacity="1.000000" stroke="none" 
	d="
M651.634644,520.532227 
	C650.679382,519.551453 649.126282,518.123657 649.109680,516.678223 
	C648.932434,501.217468 649.039368,485.753693 648.952637,470.291382 
	C648.939880,468.012726 648.672852,465.614380 647.918701,463.485687 
	C646.253540,458.785828 641.957886,457.407349 638.091309,460.548676 
	C634.311279,463.619629 631.016174,467.287506 627.463196,470.737091 
	C627.227234,470.183624 626.586731,468.681610 625.612366,467.089752 
	C625.224915,466.536743 625.171326,466.073578 625.427368,464.944519 
	C625.830261,459.256409 625.923584,454.234192 626.016907,449.211975 
	C626.472168,449.162964 626.927429,449.113953 628.037964,449.385925 
	C636.273315,449.820190 643.853394,449.933472 651.433411,450.046753 
	C651.499878,450.486725 651.566284,450.926666 651.223145,451.815308 
	C651.025879,454.176239 651.238159,456.088531 651.450439,458.000824 
	C651.570679,459.644897 651.794800,461.288971 651.795166,462.933075 
	C651.799744,481.981079 651.770447,501.029083 651.634644,520.532227 
z"/>
<path fill="#CBA551" opacity="1.000000" stroke="none" 
	d="
M739.946045,534.955872 
	C741.002136,533.547180 742.077332,532.146606 743.544312,530.235657 
	C747.886780,530.235657 752.978088,530.235657 758.887878,530.235657 
	C757.150940,537.090210 759.606079,542.155029 765.402954,545.243164 
	C765.922180,550.339539 763.428528,551.258911 759.196838,551.083618 
	C751.763184,550.775574 744.307556,550.997559 736.355347,550.997559 
	C736.221313,549.034058 736.113281,547.451782 735.999634,545.430481 
	C735.993958,544.991455 736.000000,545.000000 736.257324,544.808350 
	C736.644104,543.999939 736.773560,543.383118 736.903015,542.766357 
	C736.903015,542.766357 736.894470,542.358337 737.213501,541.995361 
	C737.639160,541.261047 737.745850,540.889709 737.852539,540.518311 
	C737.852539,540.518311 737.795898,540.237244 738.206909,539.955444 
	C739.062622,538.093628 739.507324,536.513733 739.952087,534.933777 
	C739.952087,534.933777 739.965210,534.963928 739.946045,534.955872 
z"/>
<path fill="#CCA34A" opacity="1.000000" stroke="none" 
	d="
M618.445679,650.359741 
	C612.011169,658.008667 603.654907,655.197388 595.503540,655.771240 
	C595.503540,645.854919 595.503540,636.330200 595.503540,625.393311 
	C601.789673,626.095581 608.421326,625.736084 614.226440,627.754333 
	C622.063782,630.479065 623.804321,641.684875 618.445679,650.359741 
M603.594177,630.821472 
	C602.797729,631.630859 601.340759,632.417053 601.311279,633.253418 
	C601.108826,639.003845 601.204895,644.764709 601.204895,650.437805 
	C609.704224,651.469788 614.128540,649.807373 614.814819,644.957764 
	C616.000244,636.581177 615.169312,630.492432 603.594177,630.821472 
z"/>
<path fill="#CCA34A" opacity="1.000000" stroke="none" 
	d="
M536.636841,631.236328 
	C536.721863,629.332947 536.808289,627.862366 536.903809,626.236267 
	C542.540771,626.236267 547.997986,625.735779 553.317688,626.376770 
	C558.659058,627.020325 561.597656,635.216980 557.577759,639.554504 
	C553.352417,644.113647 555.687866,647.119812 558.006042,650.753296 
	C558.967468,652.260254 559.875366,653.801331 560.952454,655.563843 
	C556.790039,656.553772 553.806763,656.245789 552.224792,651.988953 
	C551.426453,649.840820 550.224426,647.700623 548.701965,646.009766 
	C547.535156,644.713928 545.580017,644.127808 542.860657,642.599487 
	C542.860657,646.194031 542.860657,648.158936 542.860657,650.123840 
	C542.860657,651.903198 542.860657,653.682556 542.860657,655.741699 
	C540.681335,655.741699 539.122498,655.741699 536.638245,655.741699 
	C536.638245,647.539612 536.638245,639.604370 536.636841,631.236328 
M545.571960,639.053345 
	C546.395569,639.044861 547.222229,638.986328 548.042175,639.036865 
	C551.243408,639.233948 553.021423,638.039795 552.987915,634.546143 
	C552.951721,630.769531 550.339111,631.003662 547.838379,630.956848 
	C546.267761,630.927429 544.696106,630.951355 541.790833,630.951355 
	C542.994080,634.331787 543.828918,636.677124 545.571960,639.053345 
z"/>
<path fill="#C99F43" opacity="1.000000" stroke="none" 
	d="
M387.867554,646.464478 
	C387.839905,649.710815 387.839905,652.511597 387.839905,655.482788 
	C383.533356,656.635315 381.430511,655.878052 381.603943,650.973633 
	C381.890747,642.862488 381.681854,634.733826 381.681854,625.636719 
	C387.388245,626.015015 393.023956,625.888855 398.448547,626.897705 
	C403.267731,627.793945 405.755707,635.652832 402.114929,639.599609 
	C398.395264,643.631897 399.695679,646.441589 402.101410,649.928162 
	C403.204041,651.526245 403.999207,653.336426 405.044342,655.253174 
	C400.901184,656.525391 398.268890,655.815674 396.848297,651.795959 
	C396.081970,649.627625 394.997284,647.444946 393.557800,645.673767 
	C391.799011,643.509888 389.565155,642.451233 387.867554,646.464478 
M395.063507,639.034363 
	C396.014526,637.429504 397.366333,635.912842 397.747040,634.182556 
	C397.936676,633.320679 396.513733,631.358765 395.531067,631.128357 
	C392.921356,630.516785 390.154480,630.576172 387.474335,630.370483 
	C387.474335,633.582275 387.474335,636.149414 387.474335,639.104187 
	C389.944550,639.104187 392.061981,639.104187 395.063507,639.034363 
z"/>
<path fill="#C99F43" opacity="1.000000" stroke="none" 
	d="
M278.685791,636.971924 
	C278.747009,639.950439 278.811798,642.443481 278.873596,644.936707 
	C278.979126,649.195496 281.091248,651.379395 285.420502,651.274780 
	C289.631805,651.172974 291.281097,648.812439 291.202576,644.827393 
	C291.140320,641.668823 291.180450,638.508118 291.178131,635.348389 
	C291.175934,632.361328 291.177643,629.374268 291.177643,625.815369 
	C293.078796,625.731750 294.804840,625.655884 296.681000,625.573364 
	C296.681000,633.607971 297.222412,641.369080 296.480072,649.005432 
	C296.027069,653.665100 289.837830,656.683167 284.257904,656.298645 
	C278.165588,655.878906 273.586060,652.507935 273.123108,646.855957 
	C272.570465,640.109314 272.992798,633.282776 272.992798,626.031616 
	C274.626862,626.031616 276.475128,626.031616 278.687988,626.031616 
	C278.687988,629.587891 278.687988,633.037231 278.685791,636.971924 
z"/>
<path fill="#C99F43" opacity="1.000000" stroke="none" 
	d="
M230.986267,641.903625 
	C231.016357,634.978210 233.423126,629.805847 239.494827,626.900085 
	C245.506256,624.023071 251.416122,625.059570 255.496857,629.488342 
	C260.302765,634.704102 261.268646,642.824097 257.812653,648.956543 
	C254.584167,654.685303 249.041077,657.144897 242.135757,655.912842 
	C236.102692,654.836365 232.001450,649.835815 230.986267,641.903625 
M239.584793,648.943848 
	C242.721909,651.719727 246.226379,651.987976 249.618881,649.780518 
	C253.400833,647.319702 254.532730,642.099304 253.256439,636.722351 
	C252.086349,631.793030 248.805695,630.609070 244.316788,630.913391 
	C239.931259,631.210632 237.356659,633.865784 237.198563,637.805359 
	C237.059036,641.282349 238.392090,644.818481 239.584793,648.943848 
z"/>
<path fill="#CCA34A" opacity="1.000000" stroke="none" 
	d="
M347.679138,625.285034 
	C348.521515,626.768188 349.256104,628.195862 349.331482,629.657471 
	C349.596680,634.799927 349.516876,639.960571 349.800232,645.101562 
	C350.001129,648.746338 351.915955,651.042358 355.842804,650.916321 
	C359.725372,650.791748 360.884369,648.153198 360.925079,644.833923 
	C361.002075,638.560059 360.947357,632.284607 360.947357,626.067505 
	C365.287598,624.647400 367.181061,625.427856 366.977692,629.844910 
	C366.740814,634.989441 367.135468,640.162476 366.913696,645.308411 
	C366.628815,651.920410 362.090515,656.282471 355.822144,656.390381 
	C348.798431,656.511292 343.805969,652.340393 343.412201,645.527405 
	C343.086304,639.889465 343.400940,634.217163 343.197479,628.568542 
	C343.082336,625.372253 344.797546,624.983215 347.679138,625.285034 
z"/>
<path fill="#CBA551" opacity="1.000000" stroke="none" 
	d="
M418.084778,632.203857 
	C417.361115,627.047180 419.024902,624.993774 424.052826,625.608093 
	C427.658539,626.048645 431.373199,625.536926 435.008972,625.828125 
	C436.105652,625.915894 437.100922,627.270020 438.142639,628.044067 
	C437.103851,628.989563 436.205811,630.388184 434.990601,630.765808 
	C433.476410,631.236206 431.700592,630.856873 430.037750,630.857788 
	C424.282013,630.861145 423.972626,631.242737 424.836456,637.761780 
	C427.191772,637.761780 429.687958,637.400146 432.004883,637.888672 
	C433.553467,638.215271 434.847137,639.750671 436.254883,640.745117 
	C434.903931,641.571045 433.640717,642.681030 432.174500,643.133789 
	C430.982147,643.502014 429.544159,643.112244 428.219299,643.006348 
	C425.410004,642.781799 424.356293,644.114258 424.404663,646.851013 
	C424.447998,649.303223 424.844086,651.165283 427.872375,651.122314 
	C430.365631,651.086975 432.915100,650.872498 435.330566,651.322754 
	C436.467560,651.534607 437.348328,653.121094 438.345215,654.084595 
	C437.258728,654.789978 436.195312,656.059143 435.081940,656.104614 
	C429.810364,656.319824 424.525146,656.200745 418.086517,656.200745 
	C418.086517,648.125488 418.086517,640.400208 418.084778,632.203857 
z"/>
<path fill="#C99F43" opacity="1.000000" stroke="none" 
	d="
M794.803894,655.769653 
	C792.924255,654.988342 790.248962,654.165100 790.216553,653.248474 
	C789.900757,644.304810 790.026489,635.345520 790.026489,625.996643 
	C794.215271,625.996643 798.276062,625.482483 802.125977,626.162537 
	C805.099304,626.687744 808.974365,627.989868 810.361389,630.235657 
	C812.442017,633.604553 811.948486,637.978760 808.726624,641.267883 
	C808.152039,641.854553 807.530090,642.394775 806.563354,643.299622 
	C808.632202,647.320312 810.716492,651.370911 812.838257,655.494507 
	C808.824097,656.771545 806.401733,655.717224 804.945129,652.062866 
	C804.028503,649.763367 802.870056,647.434204 801.284241,645.575623 
	C800.361755,644.494568 798.380615,644.316895 796.512085,643.591492 
	C796.019836,648.251404 795.627258,651.967896 794.803894,655.769653 
M799.511597,639.079895 
	C802.707458,639.081360 806.535095,639.442505 805.707825,634.538025 
	C804.647095,628.249878 799.246155,631.752686 795.810486,630.381042 
	C796.667236,633.520874 792.283020,638.080505 799.511597,639.079895 
z"/>
<path fill="#CCA34A" opacity="1.000000" stroke="none" 
	d="
M658.939636,655.689514 
	C655.216248,656.593201 653.158875,655.926636 652.501953,651.791321 
	C651.749207,647.052124 647.413391,648.648682 644.329285,648.353027 
	C641.668579,648.098083 639.325378,648.434204 638.895752,651.894653 
	C638.399597,655.890320 635.903625,656.604370 631.316528,655.208618 
	C635.143616,645.721069 638.778931,636.372192 642.724609,627.156128 
	C643.754395,624.750610 648.227356,624.907959 649.170288,627.394165 
	C652.694519,636.685974 655.909302,646.095154 658.939636,655.689514 
M643.922485,636.661072 
	C643.427795,638.663818 642.933105,640.666565 642.420471,642.742126 
	C644.849487,642.742126 646.741577,642.742126 649.304443,642.742126 
	C648.087952,639.108154 647.056946,636.028320 645.746521,632.113831 
	C644.912781,633.969543 644.469116,634.957031 643.922485,636.661072 
z"/>
<path fill="#CCA34A" opacity="1.000000" stroke="none" 
	d="
M755.554077,653.315918 
	C755.505432,643.960388 755.505432,635.042664 755.505432,625.738892 
	C759.674805,625.738892 763.627441,625.586304 767.563782,625.774963 
	C773.335693,626.051575 776.594482,629.085510 777.290161,634.468689 
	C777.911743,639.278503 775.185059,644.606079 770.050232,644.672668 
	C761.798035,644.779541 760.601379,648.937256 761.981689,657.355591 
	C758.927856,655.631226 757.265259,654.692505 755.554077,653.315918 
M768.097961,639.768860 
	C771.694946,638.142578 772.013672,634.610901 770.240845,632.428955 
	C768.897461,630.775635 765.282104,630.968140 762.677795,630.339233 
	C762.024231,633.557129 761.370605,636.774963 760.562805,640.752258 
	C763.813782,640.359497 765.564026,640.148071 768.097961,639.768860 
z"/>
<path fill="#CBA551" opacity="1.000000" stroke="none" 
	d="
M826.021729,638.013794 
	C826.013000,633.727417 826.013000,629.937683 826.013000,625.847290 
	C832.410461,625.847290 838.323792,625.847290 844.316711,625.847290 
	C845.718567,629.670959 844.514526,631.265991 840.582153,630.948547 
	C838.930298,630.815186 837.255310,630.993958 835.596802,630.911316 
	C833.178345,630.790833 831.939941,631.586670 831.903137,634.286133 
	C831.865356,637.064209 832.834412,638.265869 835.655151,638.108032 
	C837.640442,637.996948 839.679810,637.963501 841.617737,638.317871 
	C842.431885,638.466797 843.730652,639.867249 843.601807,640.414490 
	C843.372253,641.388977 842.291260,642.791138 841.448181,642.878906 
	C838.535645,643.182129 835.572205,642.995728 832.116516,642.995728 
	C832.278503,645.898926 832.403076,648.130615 832.552002,650.799438 
	C836.491882,650.799438 840.086975,650.799438 844.143066,650.799438 
	C844.252014,652.598022 844.335144,653.969543 844.406860,655.152405 
	C843.720276,655.538940 843.446472,655.825989 843.169128,655.829346 
	C838.683411,655.884338 834.193787,655.808350 829.712341,655.966736 
	C827.116577,656.058533 826.126526,654.998962 826.147339,652.475769 
	C826.185791,647.821289 826.077637,643.165649 826.021729,638.013794 
z"/>
<path fill="#CCA34A" opacity="1.000000" stroke="none" 
	d="
M200.831360,639.289429 
	C201.365311,642.420776 201.268906,645.527893 202.624908,647.747864 
	C205.552429,652.540649 210.630096,652.499451 215.796082,648.130005 
	C219.702759,649.743042 219.434235,651.647461 216.258453,653.937683 
	C212.440369,656.691101 208.356277,657.272888 203.976669,655.589539 
	C198.260773,653.392517 195.365936,649.024841 194.684692,643.103638 
	C193.937927,636.613098 196.030090,631.248535 201.563965,627.579895 
	C206.076965,624.588013 210.783295,624.205566 215.665665,627.011597 
	C219.399582,629.157593 219.518051,631.201477 215.979507,633.548950 
	C207.340057,628.828918 202.589722,630.511963 200.831360,639.289429 
z"/>
<path fill="#CCA34A" opacity="1.000000" stroke="none" 
	d="
M686.641846,655.862793 
	C681.544006,655.864563 676.898193,655.864563 671.875732,655.864563 
	C671.875732,645.767700 671.875732,636.016479 671.875732,625.773987 
	C673.568970,625.694031 675.298645,625.612305 677.730469,625.497437 
	C677.730469,631.625427 677.707214,637.377747 677.736145,643.129822 
	C677.774902,650.831116 677.792114,650.824829 685.266174,650.637634 
	C686.748169,650.600464 688.231873,650.632202 689.984558,650.632202 
	C690.643433,653.399597 691.711731,656.093689 686.641846,655.862793 
z"/>
<path fill="#C99F43" opacity="1.000000" stroke="none" 
	d="
M323.068878,648.564270 
	C323.066986,651.145996 323.066986,653.280029 323.066986,655.667053 
	C321.107819,655.667053 319.521271,655.667053 317.285156,655.667053 
	C317.285156,647.728394 317.285156,639.837708 317.285156,631.498108 
	C314.303864,631.189636 311.909088,630.941833 309.368744,630.678955 
	C308.021057,627.366577 308.794891,625.810608 312.688477,625.923523 
	C318.641052,626.096252 324.602356,625.968872 330.940430,625.968872 
	C330.940430,627.380493 330.940430,628.915527 330.940430,630.638611 
	C328.375763,630.854675 326.099976,631.046448 323.070770,631.301697 
	C323.070770,636.942505 323.070770,642.529541 323.068878,648.564270 
z"/>
<path fill="#CCA34A" opacity="1.000000" stroke="none" 
	d="
M868.987061,625.983765 
	C871.809998,625.966980 874.147095,626.061768 876.468750,625.914001 
	C879.854126,625.698547 880.531006,627.370544 879.596680,630.802979 
	C877.068359,630.946716 874.342590,631.101685 871.112122,631.285339 
	C871.112122,639.460449 871.112122,647.373352 871.112122,655.601562 
	C869.012878,655.601562 867.442505,655.601562 865.284180,655.601562 
	C865.284180,647.636047 865.284180,639.726257 865.284180,631.007751 
	C862.788391,631.007751 860.789917,631.326538 858.977051,630.884155 
	C857.944519,630.632263 857.215271,629.137329 856.349426,628.202148 
	C857.235352,627.491577 858.073547,626.252136 859.015930,626.167175 
	C862.155212,625.883850 865.331909,626.014771 868.987061,625.983765 
z"/>
<path fill="#C99F43" opacity="1.000000" stroke="none" 
	d="
M574.102417,637.023193 
	C574.097778,633.073059 574.097778,629.617493 574.097778,625.809937 
	C576.133484,625.809937 577.856201,625.809937 579.923767,625.809937 
	C579.923767,635.869263 579.923767,645.720154 579.923767,655.442322 
	C575.193481,657.031128 573.917114,655.099854 574.105530,650.950806 
	C574.308472,646.482300 574.123047,641.996155 574.102417,637.023193 
z"/>
<path fill="#C8A85C" opacity="1.000000" stroke="none" 
	d="
M335.684570,449.202209 
	C336.012146,493.797821 336.051056,538.399841 335.918793,583.001404 
	C335.907196,586.905518 336.927155,588.312500 340.947937,588.103760 
	C344.839874,587.901794 348.774078,588.514709 352.846832,589.101685 
	C347.234375,589.433655 341.464813,589.433655 334.924042,589.433655 
	C334.924042,587.442688 334.926849,585.527893 334.923615,583.613098 
	C334.849396,539.399170 334.772003,495.185272 334.726868,450.971313 
	C334.726288,450.383911 335.133392,449.796112 335.684570,449.202209 
z"/>
<path fill="#C8A85C" opacity="1.000000" stroke="none" 
	d="
M362.030945,587.559326 
	C361.664429,586.603760 361.042664,585.207214 361.061676,583.819397 
	C361.311310,565.589844 361.810425,547.362488 361.929565,529.132568 
	C362.088074,504.884094 361.989075,480.633728 361.931335,456.384369 
	C361.926300,454.268646 361.405914,452.154205 361.054840,449.645264 
	C361.483002,450.623901 362.411774,451.994781 362.416779,453.369080 
	C362.568695,494.979736 362.642883,536.590759 362.676910,578.201660 
	C362.679352,581.175110 362.283966,584.148865 362.030945,587.559326 
z"/>
<path fill="#C99F43" opacity="1.000000" stroke="none" 
	d="
M467.084167,639.203003 
	C468.991821,639.122437 471.505554,638.639404 472.000763,639.426392 
	C473.333099,641.543884 474.753143,644.360962 474.380768,646.609131 
	C473.892426,649.557129 470.748352,651.568115 467.955231,649.710510 
	C466.099396,648.476257 465.186340,645.405884 464.545563,642.974487 
	C464.298431,642.036743 465.971527,640.592896 467.084167,639.203003 
z"/>
<path fill="#C99F43" opacity="1.000000" stroke="none" 
	d="
M714.905029,647.060425 
	C713.565430,643.437134 714.271545,640.378540 717.460022,639.223083 
	C719.068970,638.640076 722.711060,639.726807 723.231934,640.976318 
	C724.079834,643.010376 723.969727,646.391541 722.744629,648.139038 
	C720.394775,651.490662 717.366089,650.520325 714.905029,647.060425 
z"/>
<path fill="#C8A85C" opacity="1.000000" stroke="none" 
	d="
M788.016113,570.363403 
	C794.533264,569.714966 792.183411,574.150269 791.914490,577.883118 
	C790.601074,575.777893 789.322327,573.252319 788.016113,570.363403 
z"/>
<path fill="#C8A75A" opacity="1.000000" stroke="none" 
	d="
M651.303345,449.677246 
	C643.853394,449.933472 636.273315,449.820190 628.376953,449.451782 
	C635.764832,449.233643 643.469055,449.270691 651.303345,449.677246 
z"/>
<path fill="#C8A85C" opacity="1.000000" stroke="none" 
	d="
M812.018738,558.633423 
	C810.043701,554.882324 808.054504,550.754761 806.116821,546.232788 
	C808.113770,549.977966 810.059204,554.117493 812.018738,558.633423 
z"/>
<path fill="#CBA551" opacity="1.000000" stroke="none" 
	d="
M625.197144,479.432251 
	C626.392334,480.123596 627.501953,481.235565 628.611572,482.347534 
	C627.728516,483.224152 626.845520,484.100800 625.610718,484.982758 
	C625.209778,483.276337 625.160645,481.564606 625.197144,479.432251 
z"/>
<path fill="#C8A75A" opacity="1.000000" stroke="none" 
	d="
M625.641113,449.391449 
	C625.923584,454.234192 625.830261,459.256409 625.494446,464.599243 
	C625.256409,459.803558 625.260864,454.687256 625.641113,449.391449 
z"/>
<path fill="#C8A85C" opacity="1.000000" stroke="none" 
	d="
M794.229187,518.495361 
	C792.851807,516.118408 791.458679,513.369202 790.116882,510.229218 
	C791.516602,512.599976 792.865051,515.361450 794.229187,518.495361 
z"/>
<path fill="#C8A85C" opacity="1.000000" stroke="none" 
	d="
M802.056152,535.650024 
	C800.744385,533.463928 799.408325,530.908081 798.111450,527.927124 
	C799.444336,530.094727 800.738098,532.687500 802.056152,535.650024 
z"/>
<path fill="#C8A75A" opacity="1.000000" stroke="none" 
	d="
M651.587402,457.587341 
	C651.238159,456.088531 651.025879,454.176239 651.109863,452.134064 
	C651.512268,453.727417 651.618347,455.450623 651.587402,457.587341 
z"/>
<path fill="#C8A85C" opacity="1.000000" stroke="none" 
	d="
M786.223999,500.503479 
	C785.197266,498.685089 784.156494,496.494598 783.130371,493.887939 
	C784.166748,495.691620 785.188354,497.911499 786.223999,500.503479 
z"/>
<path fill="#C8A85C" opacity="1.000000" stroke="none" 
	d="
M818.037109,572.624023 
	C817.058899,571.103394 816.065186,569.223755 815.108887,566.941528 
	C816.104797,568.447693 817.063232,570.356384 818.037109,572.624023 
z"/>
<path fill="#C8A85C" opacity="1.000000" stroke="none" 
	d="
M805.070007,542.611450 
	C804.079956,541.080200 803.079834,539.187500 802.116516,536.887695 
	C803.122192,538.403687 804.091064,540.326904 805.070007,542.611450 
z"/>
<path fill="#C8A85C" opacity="1.000000" stroke="none" 
	d="
M773.113281,469.665649 
	C771.939880,469.029694 770.738831,468.016937 769.188477,466.940430 
	C769.398621,466.238373 769.958069,465.600128 770.517456,464.961914 
	C771.373535,466.404266 772.229553,467.846558 773.113281,469.665649 
z"/>
<path fill="#C8A85C" opacity="1.000000" stroke="none" 
	d="
M797.060974,524.614990 
	C796.076233,523.174194 795.074341,521.377686 794.132019,519.205444 
	C795.142334,520.639587 796.093079,522.449341 797.060974,524.614990 
z"/>
<path fill="#C8A85C" opacity="1.000000" stroke="none" 
	d="
M757.618530,490.111267 
	C757.602478,492.031799 757.288513,494.167694 756.931274,496.711670 
	C757.032104,494.855408 757.176331,492.591034 757.618530,490.111267 
z"/>
<path fill="#C8A85C" opacity="1.000000" stroke="none" 
	d="
M822.084717,581.616577 
	C821.106079,580.104370 820.101868,578.233765 819.116089,575.977417 
	C820.109436,577.480408 821.084351,579.369263 822.084717,581.616577 
z"/>
<path fill="#C8A85C" opacity="1.000000" stroke="none" 
	d="
M814.059326,563.609009 
	C813.404907,562.765137 812.737183,561.570557 812.108887,559.955200 
	C812.780884,560.775757 813.413513,562.017029 814.059326,563.609009 
z"/>
<path fill="#C8A85C" opacity="1.000000" stroke="none" 
	d="
M739.679932,535.149292 
	C739.507324,536.513733 739.062622,538.093628 738.292358,539.840332 
	C738.447144,538.459656 738.927429,536.912292 739.679932,535.149292 
z"/>
<path fill="#C8A85C" opacity="1.000000" stroke="none" 
	d="
M355.350952,589.576477 
	C355.940552,589.270020 356.894958,589.105225 357.931335,589.208252 
	C357.247467,589.556702 356.481628,589.637390 355.350952,589.576477 
z"/>
<path fill="#C8A85C" opacity="1.000000" stroke="none" 
	d="
M761.708008,482.151550 
	C761.529419,483.252441 761.093628,484.557800 760.288452,485.909332 
	C760.429626,484.755707 760.940247,483.555847 761.708008,482.151550 
z"/>
<path fill="#C8A85C" opacity="1.000000" stroke="none" 
	d="
M779.061279,483.640472 
	C778.408997,482.843109 777.748230,481.705017 777.097717,480.220581 
	C777.756226,481.016052 778.404480,482.157928 779.061279,483.640472 
z"/>
<path fill="#C8A85C" opacity="1.000000" stroke="none" 
	d="
M783.097229,492.682770 
	C782.438843,491.823578 781.763794,490.610901 781.105225,489.029419 
	C781.774597,489.883514 782.427551,491.106415 783.097229,492.682770 
z"/>
<path fill="#C8A85C" opacity="1.000000" stroke="none" 
	d="
M766.595093,471.780548 
	C766.515259,472.659485 766.177551,473.751099 765.481689,474.920410 
	C765.528137,473.996490 765.932678,472.994873 766.595093,471.780548 
z"/>
<path fill="#C8A85C" opacity="1.000000" stroke="none" 
	d="
M775.113525,474.604736 
	C774.455933,473.713654 773.783691,472.464142 773.134216,470.829834 
	C773.804321,471.712097 774.451599,472.979187 775.113525,474.604736 
z"/>
<path fill="#C8A85C" opacity="1.000000" stroke="none" 
	d="
M806.214722,545.580872 
	C805.817505,545.156982 805.418823,544.397766 805.035278,543.283997 
	C805.437988,543.701477 805.825623,544.473511 806.214722,545.580872 
z"/>
<path fill="#C8A85C" opacity="1.000000" stroke="none" 
	d="
M776.080688,476.715210 
	C775.753296,476.529907 775.412537,476.032623 775.077148,475.214935 
	C775.410767,475.397430 775.739075,475.900330 776.080688,476.715210 
z"/>
<path fill="#C8A85C" opacity="1.000000" stroke="none" 
	d="
M764.681885,475.998535 
	C764.769043,476.405182 764.618225,477.018127 764.192993,477.804626 
	C764.093750,477.387085 764.268860,476.795990 764.681885,475.998535 
z"/>
<path fill="#C8A85C" opacity="1.000000" stroke="none" 
	d="
M768.642212,467.065399 
	C768.739136,467.478058 768.587158,468.080414 768.165039,468.857910 
	C768.061096,468.440399 768.227112,467.847748 768.642212,467.065399 
z"/>
<path fill="#C8A85C" opacity="1.000000" stroke="none" 
	d="
M763.703735,478.105164 
	C763.786072,478.504791 763.623474,479.082153 763.197388,479.820618 
	C763.108826,479.415466 763.283875,478.849182 763.703735,478.105164 
z"/>
<path fill="#C8A85C" opacity="1.000000" stroke="none" 
	d="
M777.153503,479.603638 
	C776.807678,479.374573 776.455322,478.799072 776.127197,477.854614 
	C776.483215,478.076172 776.815063,478.666687 777.153503,479.603638 
z"/>
<path fill="#C8A85C" opacity="1.000000" stroke="none" 
	d="
M736.667480,542.978638 
	C736.773560,543.383118 736.644104,543.999939 736.253662,544.806519 
	C736.139099,544.394470 736.285522,543.792725 736.667480,542.978638 
z"/>
<path fill="#C8A85C" opacity="1.000000" stroke="none" 
	d="
M762.717896,480.119385 
	C762.794373,480.513245 762.630066,481.087463 762.204712,481.823547 
	C762.121399,481.423492 762.299255,480.861603 762.717896,480.119385 
z"/>
<path fill="#C8A85C" opacity="1.000000" stroke="none" 
	d="
M819.004395,574.701538 
	C818.687073,574.521545 818.367310,574.040771 818.040100,573.254761 
	C818.355774,573.433289 818.678894,573.916992 819.004395,574.701538 
z"/>
<path fill="#C8A85C" opacity="1.000000" stroke="none" 
	d="
M815.028992,565.706665 
	C814.709106,565.526245 814.381592,565.040588 814.050232,564.244751 
	C814.371338,564.423584 814.696350,564.912476 815.028992,565.706665 
z"/>
<path fill="#C8A85C" opacity="1.000000" stroke="none" 
	d="
M780.019165,485.705627 
	C779.703003,485.523163 779.377869,485.038269 779.048157,484.244263 
	C779.365784,484.424530 779.687988,484.913879 780.019165,485.705627 
z"/>
<path fill="#C8A85C" opacity="1.000000" stroke="none" 
	d="
M759.697754,486.096375 
	C759.779480,486.504913 759.609497,487.083496 759.168823,487.815979 
	C759.080750,487.402039 759.263428,486.834229 759.697754,486.096375 
z"/>
<path fill="#C8A85C" opacity="1.000000" stroke="none" 
	d="
M758.683289,488.082886 
	C758.765320,488.495178 758.595276,489.078461 758.147949,489.810944 
	C758.057556,489.391418 758.244385,488.822632 758.683289,488.082886 
z"/>
<path fill="#C8A85C" opacity="1.000000" stroke="none" 
	d="
M756.839294,497.402283 
	C757.183777,497.632935 757.539612,498.212830 757.871948,499.164917 
	C757.515869,498.941895 757.183289,498.346710 756.839294,497.402283 
z"/>
<path fill="#C8A85C" opacity="1.000000" stroke="none" 
	d="
M787.165771,502.625275 
	C786.816650,502.454956 786.460876,501.970886 786.142700,501.160889 
	C786.506592,501.327148 786.832886,501.819336 787.165771,502.625275 
z"/>
<path fill="#C8A85C" opacity="1.000000" stroke="none" 
	d="
M788.107056,504.654480 
	C787.772644,504.479706 787.427246,503.994659 787.099121,503.189087 
	C787.442932,503.360413 787.769592,503.852295 788.107056,504.654480 
z"/>
<path fill="#C8A85C" opacity="1.000000" stroke="none" 
	d="
M789.030884,506.703552 
	C788.713867,506.518005 788.389160,506.023804 788.069214,505.215607 
	C788.390381,505.399353 788.706787,505.897125 789.030884,506.703552 
z"/>
<path fill="#C8A85C" opacity="1.000000" stroke="none" 
	d="
M790.206665,509.572998 
	C789.845215,509.360565 789.473145,508.806641 789.125244,507.884888 
	C789.498291,508.088531 789.847168,508.659973 790.206665,509.572998 
z"/>
<path fill="#C8A85C" opacity="1.000000" stroke="none" 
	d="
M798.032288,526.709717 
	C797.715271,526.527222 797.385864,526.040405 797.053650,525.242432 
	C797.373840,525.422607 797.696899,525.914001 798.032288,526.709717 
z"/>
<path fill="#C8A85C" opacity="1.000000" stroke="none" 
	d="
M780.928955,487.693848 
	C780.704651,487.698975 780.448364,487.407532 780.155457,486.815674 
	C780.378296,486.809204 780.637695,487.103210 780.928955,487.693848 
z"/>
<path fill="#C8A85C" opacity="1.000000" stroke="none" 
	d="
M767.613525,469.635834 
	C767.742065,469.843811 767.613586,470.238831 767.230835,470.820374 
	C767.103333,470.612213 767.229980,470.217560 767.613525,469.635834 
z"/>
<path fill="#C8A85C" opacity="1.000000" stroke="none" 
	d="
M737.614319,540.696289 
	C737.745850,540.889709 737.639160,541.261047 737.298767,541.809998 
	C737.168762,541.616455 737.272400,541.245300 737.614319,540.696289 
z"/>
<path fill="#C8A85C" opacity="1.000000" stroke="none" 
	d="
M361.290344,589.656250 
	C361.199860,589.377197 361.384552,589.214966 361.796631,589.052734 
	C362.040833,589.376343 361.888000,589.616516 361.290344,589.656250 
z"/>
<path fill="#CBA551" opacity="1.000000" stroke="none" 
	d="
M250.903534,550.313721 
	C241.342072,550.574219 232.108871,550.574219 221.467850,550.574219 
	C222.505142,546.296265 223.386246,542.289856 224.455658,538.334351 
	C226.332687,531.391663 230.771271,528.606323 237.955170,529.936035 
	C240.316620,530.373169 242.827133,530.004883 246.362015,530.004883 
	C238.788666,537.874023 249.636429,539.340820 250.005310,544.410889 
	C250.143600,546.311340 250.807510,548.173523 250.903534,550.313721 
z"/>
<path fill="#C9A759" opacity="1.000000" stroke="none" 
	d="
M360.999573,494.003662 
	C360.999451,519.295105 361.107117,544.088501 360.874573,568.878601 
	C360.842224,572.325684 359.641113,576.015930 358.057861,579.123230 
	C356.460663,582.257751 354.241577,582.716614 350.035095,581.037537 
	C339.272369,576.741333 338.227539,567.630554 338.252594,558.822510 
	C338.292908,544.639099 340.236908,530.471863 340.830109,516.275024 
	C341.168060,508.187042 340.196991,500.052856 340.230438,491.941162 
	C340.260773,484.588654 338.168030,476.954529 342.484436,470.021179 
	C342.747101,469.599274 342.822296,468.949249 343.184418,468.717987 
	C346.683899,466.482910 350.226135,464.314819 353.756134,462.127594 
	C355.471741,465.202271 358.121948,468.108551 358.712372,471.385925 
	C360.022888,478.660065 360.300598,486.120239 360.999573,494.003662 
z"/>
<path fill="#FCFCF1" opacity="1.000000" stroke="none" 
	d="
M507.293030,642.946655 
	C509.708466,642.867310 511.864838,642.471619 513.608887,643.144531 
	C515.031677,643.693604 517.005005,645.660339 516.858765,646.745972 
	C516.653381,648.271179 514.952454,650.271179 513.453369,650.780945 
	C511.413605,651.474670 508.960815,650.953857 505.830994,650.953857 
	C506.210388,648.042969 506.533020,645.567627 507.293030,642.946655 
z"/>
<path fill="#FCFCF1" opacity="1.000000" stroke="none" 
	d="
M513.843628,631.097534 
	C516.223145,636.924744 515.480408,637.552673 506.241852,637.662109 
	C506.241852,635.316162 506.241852,632.974060 506.241852,630.326233 
	C508.887726,630.566101 511.155518,630.771729 513.843628,631.097534 
z"/>
<path fill="#FCFCF1" opacity="1.000000" stroke="none" 
	d="
M604.041931,630.832092 
	C615.169312,630.492432 616.000244,636.581177 614.814819,644.957764 
	C614.128540,649.807373 609.704224,651.469788 601.204895,650.437805 
	C601.204895,644.764709 601.108826,639.003845 601.311279,633.253418 
	C601.340759,632.417053 602.797729,631.630859 604.041931,630.832092 
z"/>
<path fill="#FCFCF1" opacity="1.000000" stroke="none" 
	d="
M545.117859,639.037964 
	C543.828918,636.677124 542.994080,634.331787 541.790833,630.951355 
	C544.696106,630.951355 546.267761,630.927429 547.838379,630.956848 
	C550.339111,631.003662 552.951721,630.769531 552.987915,634.546143 
	C553.021423,638.039795 551.243408,639.233948 548.042175,639.036865 
	C547.222229,638.986328 546.395569,639.044861 545.117859,639.037964 
z"/>
<path fill="#FCFCF1" opacity="1.000000" stroke="none" 
	d="
M394.621460,639.069275 
	C392.061981,639.104187 389.944550,639.104187 387.474335,639.104187 
	C387.474335,636.149414 387.474335,633.582275 387.474335,630.370483 
	C390.154480,630.576172 392.921356,630.516785 395.531067,631.128357 
	C396.513733,631.358765 397.936676,633.320679 397.747040,634.182556 
	C397.366333,635.912842 396.014526,637.429504 394.621460,639.069275 
z"/>
<path fill="#FCFCF1" opacity="1.000000" stroke="none" 
	d="
M239.329865,648.636169 
	C238.392090,644.818481 237.059036,641.282349 237.198563,637.805359 
	C237.356659,633.865784 239.931259,631.210632 244.316788,630.913391 
	C248.805695,630.609070 252.086349,631.793030 253.256439,636.722351 
	C254.532730,642.099304 253.400833,647.319702 249.618881,649.780518 
	C246.226379,651.987976 242.721909,651.719727 239.329865,648.636169 
z"/>
<path fill="#FCFCF1" opacity="1.000000" stroke="none" 
	d="
M799.072998,639.080322 
	C792.283020,638.080505 796.667236,633.520874 795.810486,630.381042 
	C799.246155,631.752686 804.647095,628.249878 805.707825,634.538025 
	C806.535095,639.442505 802.707458,639.081360 799.072998,639.080322 
z"/>
<path fill="#FCFCF1" opacity="1.000000" stroke="none" 
	d="
M643.973999,636.302795 
	C644.469116,634.957031 644.912781,633.969543 645.746521,632.113831 
	C647.056946,636.028320 648.087952,639.108154 649.304443,642.742126 
	C646.741577,642.742126 644.849487,642.742126 642.420471,642.742126 
	C642.933105,640.666565 643.427795,638.663818 643.973999,636.302795 
z"/>
<path fill="#FCFCF1" opacity="1.000000" stroke="none" 
	d="
M767.706055,639.852783 
	C765.564026,640.148071 763.813782,640.359497 760.562805,640.752258 
	C761.370605,636.774963 762.024231,633.557129 762.677795,630.339233 
	C765.282104,630.968140 768.897461,630.775635 770.240845,632.428955 
	C772.013672,634.610901 771.694946,638.142578 767.706055,639.852783 
z"/>
</svg>